<svg xmlns="http://www.w3.org/2000/svg" xmlns:xlink="http://www.w3.org/1999/xlink" xmlns:lucid="lucid" width="783" height="1034.56"><g transform="translate(981.5 533.0555195698132)" lucid:page-tab-id="0_0"><path d="M-1000-1000H0v2000h-1000z" fill="#fff"/><path d="M-879.5 77.95a8 8 0 0 1 8-8H-308a8 8 0 0 1 8 8v283.9a8 8 0 0 1-8 8h-563.5a8 8 0 0 1-8-8z" fill="#fff" fill-opacity="0"/><path d="M-853.13 69.95h12.25m12.25 0h12.25m12.25 0h12.25m12.25 0h12.25m12.25 0h12.25m12.25 0h12.25m12.25 0h12.25m12.25 0h12.25m12.25 0h12.25m12.25 0h12.25m12.25 0h12.25m12.25 0h12.25m12.25 0h12.25m12.25 0h12.25m12.25 0h12.25m12.25 0h12.25m12.25 0h12.25m12.25 0h12.25m12.25 0h12.25m12.25 0h12.25m12.25 0h12.25m12.25 0h12.25m12.25 0h6.13a8 8 0 0 1 8 8v5.9m0 11.84v11.82m0 11.83v11.83m0 11.83v11.84m0 11.83v11.83m0 11.83v11.83m0 11.83v11.8m0 11.84v11.83m0 11.83v11.83m0 11.83v11.83m0 11.82v11.83m0 11.83v11.83m0 11.84v5.9a8 8 0 0 1-8 8h-6.13m-12.25 0h-12.25m-12.25 0h-12.25m-12.25 0h-12.25m-12.25 0h-12.25m-12.25 0h-12.25m-12.25 0h-12.25m-12.25 0h-12.25m-12.25 0h-12.25m-12.25 0h-12.25m-12.25 0h-12.25m-12.25 0h-12.25m-12.25 0h-12.25m-12.25 0h-12.25m-12.25 0h-12.25m-12.25 0h-12.25m-12.25 0h-12.25m-12.25 0h-12.25m-12.25 0h-12.25m-12.25 0h-12.25m-12.25 0h-12.25m-12.25 0h-12.25m-12.25 0h-12.25m-12.25 0h-6.13a8 8 0 0 1-8-8v-5.9m0-11.83V332.3m0-11.83v-11.83m0-11.83v-11.84m0-11.83V261.3m0-11.83v-11.83m0-11.82v-11.83m0-11.84v-11.83m0-11.83v-11.83m0-11.83V143m0-11.82v-11.83m0-11.83V95.7m0-11.84v-5.9a8 8 0 0 1 8-8h6.12" stroke="#00a4a6" stroke-width="3" fill="none"/><use xlink:href="#a" transform="matrix(1,0,0,1,-879.5095953410938,89.94979935620677) translate(212.1201171875 17.4375)"/><use xlink:href="#b" transform="matrix(1,0,0,1,-879.5095953410938,89.94979935620677) translate(307.7978515625 17.4375)"/><use xlink:href="#c" transform="matrix(1,0,0,1,-879.5095953410938,89.94979935620677) translate(356.1025390625 17.4375)"/><path d="M-879.5-322.05a8 8 0 0 1 8-8H-308a8 8 0 0 1 8 8v283.9a8 8 0 0 1-8 8h-563.5a8 8 0 0 1-8-8z" fill="#fff" fill-opacity="0"/><path d="M-853.13-330.05h12.25m12.25 0h12.25m12.25 0h12.25m12.25 0h12.25m12.25 0h12.25m12.25 0h12.25m12.25 0h12.25m12.25 0h12.25m12.25 0h12.25m12.25 0h12.25m12.25 0h12.25m12.25 0h12.25m12.25 0h12.25m12.25 0h12.25m12.25 0h12.25m12.25 0h12.25m12.25 0h12.25m12.25 0h12.25m12.25 0h12.25m12.25 0h12.25m12.25 0h12.25m12.25 0h12.25m12.25 0h6.13a8 8 0 0 1 8 8v5.9m0 11.84v11.82m0 11.83v11.83m0 11.83v11.84m0 11.83v11.83m0 11.83v11.83m0 11.83v11.8m0 11.84v11.83m0 11.83v11.83m0 11.83v11.83m0 11.82v11.83m0 11.83v11.83m0 11.84v5.9a8 8 0 0 1-8 8h-6.13m-12.25 0h-12.25m-12.25 0h-12.25m-12.25 0h-12.25m-12.25 0h-12.25m-12.25 0h-12.25m-12.25 0h-12.25m-12.25 0h-12.25m-12.25 0h-12.25m-12.25 0h-12.25m-12.25 0h-12.25m-12.25 0h-12.25m-12.25 0h-12.25m-12.25 0h-12.25m-12.25 0h-12.25m-12.25 0h-12.25m-12.25 0h-12.25m-12.25 0h-12.25m-12.25 0h-12.25m-12.25 0h-12.25m-12.25 0h-12.25m-12.25 0h-12.25m-12.25 0h-12.25m-12.25 0h-6.13a8 8 0 0 1-8-8v-5.9m0-11.83V-67.7m0-11.83v-11.83m0-11.83v-11.84m0-11.83v-11.83m0-11.83v-11.83m0-11.82v-11.83m0-11.84v-11.83m0-11.83v-11.83m0-11.83V-257m0-11.82v-11.83m0-11.83v-11.83m0-11.84v-5.9a8 8 0 0 1 8-8h6.12" stroke="#00a4a6" stroke-width="3" fill="none"/><use xlink:href="#a" transform="matrix(1,0,0,1,-879.5095953410491,-310.0502006438327) translate(211.79931640625 17.4375)"/><use xlink:href="#b" transform="matrix(1,0,0,1,-879.5095953410491,-310.0502006438327) translate(307.47705078125 17.4375)"/><use xlink:href="#d" transform="matrix(1,0,0,1,-879.5095953410491,-310.0502006438327) translate(355.78173828125 17.4375)"/><path d="M-980-523.56a8 8 0 0 1 8-8h764a8 8 0 0 1 8 8V492a8 8 0 0 1-8 8h-764a8 8 0 0 1-8-8z" stroke="#242f3e" stroke-width="3" fill="#fff" fill-opacity="0"/><path d="M-980-531.56h56v56h-56v-56z" stroke="#fff" stroke-opacity="0" fill="#242f3e"/><path d="M-961.78-505.68c-.04.47.04.87.17 1.33.1.38.28.7.48 1.07.04.1.08.2.08.34 0 .2-.12.35-.28.45l-.95.63c-.12.08-.25.12-.37.12-.16 0-.33-.07-.45-.2-.2-.22-.36-.43-.52-.7-.17-.25-.3-.53-.46-.87-1.1 1.38-2.62 2.1-4.4 2.07-1.14.05-2.12-.3-2.95-1.1-.78-.77-1.15-1.74-1.1-2.84-.05-1.2.4-2.27 1.35-3.07 1.07-.84 2.3-1.22 3.65-1.15.58 0 1.03.03 1.6.1.58.1 1.1.2 1.73.34v-1.1c.08-.9-.16-1.67-.7-2.38-.74-.56-1.56-.78-2.46-.68-.53 0-1.03.05-1.6.18-.58.14-1.03.3-1.6.52l-.5.2h-.24c-.2 0-.33-.17-.33-.47v-.75c0-.2.04-.34.12-.5.12-.16.24-.26.4-.33.66-.3 1.2-.5 1.9-.68.77-.2 1.47-.3 2.3-.28 1.47-.13 2.78.27 3.9 1.2.94 1.05 1.35 2.3 1.22 3.68zm-6.07 2.27c.57 0 1.06-.1 1.6-.3.57-.2 1.02-.48 1.43-.94.25-.3.42-.58.5-.95.12-.44.16-.83.16-1.28v-.67c-.53-.1-.94-.17-1.44-.2h-1.4c-.8-.08-1.55.1-2.2.58-.54.45-.8 1.04-.75 1.73-.04.6.13 1.15.54 1.6.44.36.97.5 1.55.43zm12 1.6c-.22 0-.42-.03-.6-.16-.15-.17-.23-.35-.32-.6l-3.5-11.5-.1-.62c0-.24.1-.37.36-.37h1.47c.2 0 .37.03.57.15.17.18.25.36.3.6l2.5 9.95 2.38-9.94c0-.23.08-.42.28-.6.17-.1.37-.14.58-.13h1.2c.24 0 .4.03.6.14.17.2.25.38.3.6l2.33 9.95 2.56-10c.04-.22.16-.4.33-.58.15-.12.36-.17.56-.14h1.4c.16-.02.33.1.37.3V-514.5s0 .2-.12.37l-3.6 11.52c-.05.23-.13.42-.3.6-.2.1-.37.15-.57.13h-1.27c-.25.03-.46-.02-.62-.15-.16-.17-.25-.37-.3-.6l-2.3-9.6-2.28 9.6c-.05.23-.13.43-.3.6-.2.13-.4.18-.6.15zm19.2.37c-.82 0-1.5-.07-2.3-.25-.65-.13-1.14-.3-1.72-.6-.2-.1-.37-.23-.45-.4-.08-.15-.12-.3-.12-.45v-.74c0-.3.12-.46.32-.46.13-.02.2-.02.3 0l.36.15c.58.24 1.03.4 1.6.5.62.15 1.15.2 1.8.2.8.06 1.5-.1 2.2-.5.48-.3.77-.8.73-1.4.04-.4-.13-.75-.38-1.04-.46-.4-.95-.64-1.52-.78l-2.18-.7c-.95-.24-1.73-.72-2.38-1.5-.5-.64-.74-1.34-.74-2.17 0-.6.12-1.1.4-1.6.3-.5.63-.9 1.08-1.23.5-.38.98-.6 1.6-.77.66-.18 1.2-.27 1.9-.25.32-.03.6-.03.97 0l1 .15.8.24.67.25c.16.12.28.23.45.38.08.16.12.3.12.5v.7c0 .32-.12.47-.37.47-.2-.02-.37-.08-.57-.18-.95-.43-1.8-.6-2.88-.6-.7-.03-1.3.1-1.97.42-.5.3-.74.8-.7 1.35 0 .4.13.76.46 1.06.5.4.98.64 1.6.8l2.1.7c.94.23 1.68.7 2.3 1.42.48.63.7 1.3.7 2.1 0 .63-.13 1.16-.38 1.72-.3.55-.62.96-1.1 1.32-.5.4-1 .65-1.6.84-.75.24-1.4.33-2.15.35zM-933.9-494.07c-5.6 3.8-11.36 5.57-18.15 5.56-8.54.03-15.82-2.75-22.16-8.46-.5-.42 0-1 .48-.68 7.07 4.06 14.02 5.9 22.2 5.9 6.1-.04 11.3-1.1 16.93-3.46.83-.35 1.52.54.7 1.13z" stroke="#fff" stroke-opacity="0" fill="#fff"/><path d="M-931.84-496.36c-.64-.8-4.16-.38-5.75-.2-.46 0-.53-.35-.1-.66 2.8-1.97 7.42-1.4 8-.74.6.67-.14 5.3-2.78 7.5-.4.33-.78.14-.6-.3.54-1.52 1.86-4.83 1.24-5.6z" stroke="#fff" stroke-opacity="0" fill="#fff"/><use xlink:href="#e" transform="matrix(1,0,0,1,-909,-511.5555195698132) translate(0 16.216875)"/><use xlink:href="#f" transform="matrix(1,0,0,1,-909,-511.5555195698132) translate(42.544775390625006 16.216875)"/><path d="M-840.37-392a8 8 0 0 1 8-8H-348a8 8 0 0 1 8 8v796.98a8 8 0 0 1-8 8h-484.37a8 8 0 0 1-8-8z" stroke="#8c4fff" stroke-width="3" fill="#fff" fill-opacity="0"/><path d="M-840.37-400h56v56h-56v-56z" stroke="#000" stroke-opacity="0" fill="#8c4fff"/><path d="M-797-370.55l-4.12-1.77v14.68c3.57-.48 4.12-4.16 4.12-4.3v-8.6zm-5.53 12.95v-14.72l-4.24 1.77v8.68c0 .07.63 3.86 4.24 4.27zm.43-16.45c.2-.07.4-.07.55.04l5.52 2.34c.28.1.44.37.44.63v9.16c-.23 2.02-1.88 5.7-6.34 5.7-4.32 0-5.96-3.68-6.24-5.6v-9.26c0-.26.2-.52.43-.63l5.65-2.4zm7.92.92l-7.65-3.38-7.76 3.26v9.97c0 .07-.03 4 2.36 6.48 1.26 1.33 3.06 2 5.3 2 2.27 0 4.03-.67 5.37-2 2.43-2.46 2.4-6.43 2.4-6.47v-9.86zm-1.4 17.3c-1.58 1.6-3.7 2.42-6.36 2.42-2.63 0-4.75-.82-6.32-2.44-2.82-2.87-2.7-7.28-2.7-7.47v-10.42c0-.3.16-.55.43-.62l8.43-3.57c.2-.1.4-.1.55 0l8.35 3.67c.27.1.43.37.43.62v10.33c0 .2.04 4.56-2.82 7.43zm-29.4-10.23h11.2v1.4h-11.2c-3.93 0-6.76-2.84-7-7.03v-.5c0-3.54 1.85-5.93 5.34-7 0-.3-.04-.66-.04-.88 0-4.1 2.23-7.66 5.64-9.05 4.63-1.88 9.84-1.25 12.75 1.54 1.06 1.04 1.9 2.18 2.47 3.5.87-.62 1.97-.9 3.3-.84 2.5.1 4.43 2.4 4.82 5.6 2.07.18 3.48 1.24 4.18 3.23l-1.3.47c-.58-1.62-1.68-2.36-3.56-2.36-.35 0-.66-.24-.66-.65-.2-3.24-2-4.82-3.57-4.9-1.34-.06-2.32.3-2.9 1.1-.17.2-.4.3-.68.27-.23-.04-.47-.22-.55-.44-.6-1.55-1.4-2.83-2.54-3.94-2.5-2.43-7.14-2.94-11.25-1.25-2.87 1.17-4.75 4.2-4.75 7.72 0 .37.04.95.08 1.32.05.37-.15.7-.5.77-3.2.82-4.86 2.74-4.86 5.8v.4c.2 3.5 2.4 5.74 5.57 5.74z" stroke="#000" stroke-opacity="0" fill="#fff"/><use xlink:href="#g" transform="matrix(1,0,0,1,-769.3715138418257,-380) translate(0 16.216875)"/><use xlink:href="#h" transform="matrix(1,0,0,1,-769.3715138418257,-380) translate(55.70463867187501 16.216875)"/><use xlink:href="#i" transform="matrix(1,0,0,1,-769.3715138418257,-380) translate(115.07932617187501 16.216875)"/><use xlink:href="#j" transform="matrix(1,0,0,1,-769.3715138418257,-380) translate(163.59099609375002 16.216875)"/><use xlink:href="#k" transform="matrix(1,0,0,1,-769.3715138418257,-380) translate(0 34.269329427083335)"/><path d="M-780 135.12a8 8 0 0 1 8-8h344a8 8 0 0 1 8 8v184a8 8 0 0 1-8 8h-344a8 8 0 0 1-8-8z" stroke="#7aa116" stroke-width="3" fill="#fff" fill-opacity="0"/><path d="M-780 127.12h56v56h-56v-56z" stroke="#fff" stroke-opacity="0" fill="#7aa116"/><path d="M-736.62 149.3c-.15-.17-.34-.25-.56-.25h-5.15v-5.58c-.03-2.53-.96-4.7-2.84-6.4-1.9-1.83-4.15-2.75-6.77-2.75-2.65 0-4.9.83-6.8 2.62-1.9 1.7-2.87 3.87-2.9 6.4v5.67h-5.15c-.24 0-.43.1-.58.26-.16.16-.22.33-.22.58v25.3c0 .4.34.78.8.78h29.6c.46 0 .8-.37.8-.8v-25.28c0-.2-.06-.38-.22-.54zm-23.46-5.9c.03-2.13.8-3.88 2.37-5.3 1.6-1.5 3.52-2.2 5.73-2.2 2.22 0 4.12.75 5.7 2.25 1.54 1.4 2.32 3.2 2.32 5.32v5.58h-16.16zm22.1 30.94h-28.03v-23.7h28z" stroke="#fff" stroke-opacity="0" fill="#fff"/><path d="M-752.8 164.43v6.24h1.6v-6.22c2.13-.4 3.62-2.2 3.63-4.36 0-2.44-1.97-4.42-4.4-4.44-2.2-.03-4.06 1.5-4.44 3.68-.42 2.4 1.2 4.7 3.6 5.1zm.82-7.16c.78 0 1.44.27 2 .83.54.55.82 1.2.8 2 .03 1.54-1.2 2.8-2.74 2.8h-.06c-1.56.13-2.92-1.04-3.04-2.6-.12-1.56 1.05-2.92 2.6-3.03h.44z" stroke="#fff" stroke-opacity="0" fill="#fff"/><use xlink:href="#l" transform="matrix(1,0,0,1,-709,147.1216188697275) translate(0 16.216875)"/><use xlink:href="#m" transform="matrix(1,0,0,1,-709,147.1216188697275) translate(53.21979492187501 16.216875)"/><use xlink:href="#n" transform="matrix(1,0,0,1,-709,147.1216188697275) translate(112.03866210937501 16.216875)"/><path d="M-780-259.66a8 8 0 0 1 8-8h344a8 8 0 0 1 8 8v184a8 8 0 0 1-8 8h-344a8 8 0 0 1-8-8z" stroke="#7aa116" stroke-width="3" fill="#fff" fill-opacity="0"/><path d="M-780-267.66h56v56h-56v-56z" stroke="#fff" stroke-opacity="0" fill="#7aa116"/><path d="M-736.62-245.5c-.15-.15-.34-.24-.56-.24h-5.15v-5.57c-.03-2.55-.96-4.7-2.84-6.42-1.9-1.83-4.15-2.74-6.77-2.74-2.65 0-4.9.83-6.8 2.62-1.9 1.7-2.87 3.87-2.9 6.4v5.66h-5.15c-.24 0-.43.08-.58.25-.16.17-.22.33-.22.58v25.3c0 .4.34.8.8.8h29.6c.46 0 .8-.4.8-.8v-25.3c0-.2-.06-.37-.22-.54zm-23.46-5.9c.03-2.12.8-3.86 2.37-5.28 1.6-1.5 3.52-2.2 5.73-2.2 2.22 0 4.12.75 5.7 2.24 1.54 1.42 2.32 3.2 2.32 5.33v5.56h-16.16zm22.1 30.96h-28.03v-23.72h28z" stroke="#fff" stroke-opacity="0" fill="#fff"/><path d="M-752.8-230.35v6.24h1.6v-6.24c2.13-.4 3.62-2.2 3.63-4.35 0-2.42-1.97-4.4-4.4-4.42-2.2-.03-4.06 1.5-4.44 3.68-.42 2.4 1.2 4.68 3.6 5.1zm.82-7.16c.78 0 1.44.26 2 .8.54.57.82 1.23.8 2 .03 1.55-1.2 2.8-2.74 2.83h-.06c-1.56.12-2.92-1.05-3.04-2.6-.12-1.57 1.05-2.94 2.6-3.04.16-.03.28-.03.44 0z" stroke="#fff" stroke-opacity="0" fill="#fff"/><g><use xlink:href="#l" transform="matrix(1,0,0,1,-709.0000000000001,-247.66341372582792) translate(0 16.216875)"/><use xlink:href="#m" transform="matrix(1,0,0,1,-709.0000000000001,-247.66341372582792) translate(53.21979492187501 16.216875)"/><use xlink:href="#o" transform="matrix(1,0,0,1,-709.0000000000001,-247.66341372582792) translate(112.03866210937501 16.216875)"/></g><path d="M-920-452.2a6 6 0 0 1 6-6h648a6 6 0 0 1 6 6V434a6 6 0 0 1-6 6h-648a6 6 0 0 1-6-6z" fill="#fff" fill-opacity="0"/><path d="M-896-458.2h12m12 0h12m12 0h12m12 0h12m12 0h12m12 0h12m12 0h12m12 0h12m12 0h12m12 0h12m12 0h12m12 0h12m12 0h12m12 0h12m12 0h12m12 0h12m12 0h12m12 0h12m12 0h12m12 0h12m12 0h12m12 0h12m12 0h12m12 0h12m12 0h12m12 0h12m12 0h6a6 6 0 0 1 6 6v5.97m0 11.98v11.98m0 11.97v11.98m0 11.97v11.98m0 11.98v11.98m0 11.98v11.97m0 11.98v12m0 11.96v11.98m0 11.97v12m0 11.97v11.97m0 11.98v11.97m0 11.97v11.97m0 11.98v11.98m0 11.97v11.98m0 11.97v11.98m0 11.98v11.97m0 11.98V-63m0 11.98v11.97m0 11.98v11.98m0 11.98V8.86m0 11.97V32.8m0 11.98v11.98m0 11.98V80.7m0 12v11.96m0 11.98v11.98m0 11.97v11.97m0 11.97v11.98m0 11.97v11.97m0 11.98v11.97m0 11.98v11.97m0 11.98v11.98m0 11.97v11.98m0 11.97v11.98m0 11.97v11.98m0 11.98v11.97m0 11.98v11.98m0 11.98v11.98m0 11.97v6a6 6 0 0 1-6 6h-6m-12 0h-12m-12 0h-12m-12 0h-12m-12 0h-12m-12 0h-12m-12 0h-12m-12 0h-12m-12 0h-12m-12 0h-12m-12 0h-12m-12 0h-12m-12 0h-12m-12 0h-12m-12 0h-12m-12 0h-12m-12 0h-12m-12 0h-12m-12 0h-12m-12 0h-12m-12 0h-12m-12 0h-12m-12 0h-12m-12 0h-12m-12 0h-12m-12 0h-12m-12 0h-12m-12 0h-6a6 6 0 0 1-6-6v-6m0-11.96v-11.98m0-11.98V380.1m0-11.97v-11.97m0-11.98V332.2m0-11.97v-11.98m0-11.97V284.3m0-11.97v-11.98m0-11.98V236.4m0-11.98v-11.97m0-11.98V188.5m0-11.98v-11.98m0-11.97V140.6m0-11.98v-11.98m0-11.98V92.7m0-12V68.75m0-11.98V44.78m0-11.97V20.84m0-11.97V-3.12m0-11.97v-11.97m0-11.98v-11.97m0-11.98v-11.97m0-11.98v-11.97m0-11.98v-11.98m0-11.97v-11.98m0-11.97v-11.98m0-11.98v-11.97m0-11.98v-11.98m0-11.98v-11.97m0-11.98v-12m0-11.96v-11.98m0-11.97v-12m0-11.97v-11.97m0-11.98v-11.97m0-11.97v-11.98m0-11.97v-11.98m0-11.97v-11.98m0-11.98v-5.98a6 6 0 0 1 6-6h6" stroke="#00a4a6" stroke-width="3" fill="none"/><path d="M-920-458.2h56v56h-56v-56z" stroke="#fff" stroke-opacity="0" fill="#00a4a6"/><path d="M-876.16-428.85l-5.96-7.37 5.96-7.4h-26.17v-2.07c.98-.3 1.62-1.15 1.62-2.18-.1-1.16-1.03-2.04-2.17-2.16-1.3-.07-2.44.88-2.53 2.16 0 1.03.63 1.87 1.58 2.2v33.88h-4.02v1.6h9.44v-1.6h-3.93v-17.05zm-26.96-19.75c.4-.04.76.32.76.72 0 .43-.32.75-.73.75-.4.04-.75-.32-.75-.72v-.03c0-.4.32-.72.73-.72zm23.6 6.6l-4.65 5.78 4.65 5.74h-22.8v-11.5z" stroke="#fff" stroke-opacity="0" fill="#fff"/><g><use xlink:href="#p" transform="matrix(1,0,0,1,-849,-438.2124667581527) translate(0 21.52777777777778)"/></g><path d="M-826.84-9.96H-829v-25.72c0-.58-.4-1.1-.9-1.34l-.13-.07c-2.94-1.26-5.94-2.67-10.28-2.67-4.54 0-7.86 1.47-11.18 3.13-.5.26-.82.77-.82 1.28v25.4h-2.1V-37.4c3.56-2.88 8.67-4.54 14.1-4.54 5.1 0 9.95 1.47 13.46 4.02v27.96zM-840.3-44.8c-6.4 0-12.45 2.03-16.54 5.6-.32.33-.44.7-.44 1.1v29.54c0 .83.63 1.47 1.4 1.47h5.04c.83 0 1.47-.63 1.47-1.46v-25.9c2.8-1.35 5.5-2.37 9.06-2.37 3.38 0 5.87.96 8.36 2.1v26.17c0 .83.63 1.47 1.46 1.47h5.1c.78 0 1.4-.63 1.4-1.46v-30.12c0-.38-.18-.83-.5-1.1-4.02-3.24-9.83-5.03-15.83-5.03zm-.33 47.48c-16 0-28.97-12.96-28.97-28.98s12.96-28.98 28.98-28.98 28.97 12.96 28.97 28.98-12.95 28.98-28.98 28.98zm0-60.9c-17.6 0-31.9 14.3-31.9 31.92s14.3 31.9 31.9 31.9c17.62 0 31.92-14.28 31.92-31.9 0-17.6-14.3-31.9-31.92-31.9z" stroke="#000" stroke-opacity="0" fill="#8c4fff"/><g><use xlink:href="#q" transform="matrix(1,0,0,1,-902.5379621117088,14.613959305316257) translate(31.425795898437496 16.216875)"/><use xlink:href="#r" transform="matrix(1,0,0,1,-902.5379621117088,14.613959305316257) translate(28.650781249999994 36.47162109375)"/></g><path d="M-335.58.75h2.88V-32.3h-2.88V.74zm-27.9 0h2.88V-32.3h-2.87V.74zm38.05-14.36l-2.55-2.18 2.55-2.17v4.34zm2.04-8.75c-.43-.26-1.07-.13-1.52.2l-6.25 5.3c-.4.24-.58.63-.58 1.07 0 .45.2.83.58 1.1l6.25 5.3c.26.18.64.3.96.3.2 0 .38-.06.57-.12.52-.26.9-.77.9-1.34V-21c0-.6-.38-1.1-.9-1.35zm-47.35 8.74v-4.35l2.56 2.17-2.55 2.17zm-.5-8.56c-.45-.32-1.1-.45-1.54-.2-.5.26-.88.77-.88 1.35v10.46c0 .57.38 1.08.9 1.34.18.06.38.12.57.12.3 0 .7-.12.94-.3l6.26-5.3c.38-.27.57-.65.57-1.1 0-.45-.2-.83-.57-1.08l-6.26-5.3zm23.16 35.42c-16 0-29.03-13.02-29.03-29.04s13.02-29.04 29.04-29.04c16.03 0 29.05 13.02 29.05 29.04s-13.02 29.04-29.04 29.04zm0-60.95c-17.6 0-31.9 14.3-31.9 31.92s14.3 31.91 31.9 31.91c17.63 0 31.93-14.3 31.93-31.9 0-17.62-14.3-31.92-31.92-31.92zm6.2 39.33h-12.38v-9.77h12.38v9.77zm-8.55-14.56c0-.83.26-1.6.77-2.1.44-.5 1.02-.77 1.6-.77 1.27 0 2.35 1.28 2.35 2.87V-21h-4.72v-1.93zm9.96 1.92h-2.35v-1.93c0-3.2-2.3-5.8-5.24-5.8-1.4 0-2.73.63-3.75 1.78-.96 1.02-1.47 2.5-1.47 3.96v2h-2.36c-.38 0-.77.12-1.02.37-.32.32-.45.64-.45 1.02v12.7c0 .82.64 1.46 1.47 1.46h15.2c.37 0 .75-.13 1-.44.33-.26.46-.64.46-1.03v-12.7c0-.4-.13-.7-.45-1.03-.26-.25-.64-.38-1.02-.38z" stroke="#000" stroke-opacity="0" fill="#8c4fff"/><g><use xlink:href="#s" transform="matrix(1,0,0,1,-410,25.13545324682798) translate(17.343967013888886 21.52777777777778)"/><use xlink:href="#t" transform="matrix(1,0,0,1,-410,25.13545324682798) translate(24.858072916666664 53.79340277777778)"/><use xlink:href="#u" transform="matrix(1,0,0,1,-410,25.13545324682798) translate(7.431857638888893 86.05902777777777)"/><use xlink:href="#v" transform="matrix(1,0,0,1,-410,25.13545324682798) translate(86.8046875 86.05902777777777)"/></g><defs><path d="M52 0l541-1490h220L1361 0h-200l-149-416H398L254 0H52zm404-582h497c-103-290-145-390-251-756-108 377-145 460-246 756" id="w"/><path d="M481 0L54-1118h197c107 314 236 620 325 951 87-331 217-637 324-951h197L670 0H481" id="x"/><path d="M471 26C259 26 90-98 90-318c0-256 228-303 435-329 202-27 287-16 287-108 0-139-79-219-234-219-161 0-248 86-283 164l-173-57c86-203 278-265 451-265 150 0 419 46 419 395V0H815v-152h-12C765-73 660 26 471 26zm31-159c199 0 310-134 310-271v-155c-30 35-226 55-295 64-131 17-246 59-246 186 0 116 97 176 231 176" id="y"/><path d="M158 0v-1118h180V0H158zm91-1301c-68 0-125-53-125-119s57-119 125-119c69 0 126 53 126 119s-57 119-126 119" id="z"/><path d="M338-1490V0H158v-1490h180" id="A"/><path d="M677 24c-213 0-288-135-325-197h-20V0H158v-1490h180v551h14c37-59 106-193 324-193 279 0 474 222 474 576 0 356-194 580-473 580zm-27-161c209 0 317-186 317-421 0-232-105-413-317-413-206 0-314 166-314 413 0 249 111 421 314 421" id="B"/><path d="M598-1118v154H368v674c0 100 37 144 132 144 23 0 62-6 92-12L629-6c-37 13-88 20-134 20-193 0-307-107-307-290v-688H20v-154h168v-266h180v266h230" id="C"/><path d="M140 405l46-156c120 36 205 19 263-150l32-93L54-1118h197c107 313 237 620 324 950 87-331 219-637 326-950h196L606 167c-68 178-176 259-334 259-64 0-113-12-132-21" id="D"/><g id="a"><use transform="matrix(0.0087890625,0,0,0.0087890625,0,0)" xlink:href="#w"/><use transform="matrix(0.0087890625,0,0,0.0087890625,11.197265625,0)" xlink:href="#x"/><use transform="matrix(0.0087890625,0,0,0.0087890625,21.2255859375,0)" xlink:href="#y"/><use transform="matrix(0.0087890625,0,0,0.0087890625,31.3330078125,0)" xlink:href="#z"/><use transform="matrix(0.0087890625,0,0,0.0087890625,35.6923828125,0)" xlink:href="#A"/><use transform="matrix(0.0087890625,0,0,0.0087890625,40.0517578125,0)" xlink:href="#y"/><use transform="matrix(0.0087890625,0,0,0.0087890625,50.1591796875,0)" xlink:href="#B"/><use transform="matrix(0.0087890625,0,0,0.0087890625,61.1806640625,0)" xlink:href="#z"/><use transform="matrix(0.0087890625,0,0,0.0087890625,65.5400390625,0)" xlink:href="#A"/><use transform="matrix(0.0087890625,0,0,0.0087890625,69.8994140625,0)" xlink:href="#z"/><use transform="matrix(0.0087890625,0,0,0.0087890625,74.2587890625,0)" xlink:href="#C"/><use transform="matrix(0.0087890625,0,0,0.0087890625,80.4990234375,0)" xlink:href="#D"/></g><path d="M130 0v-134l666-991c45-67 96-135 147-202-269 9-546 3-821 5v-168h1036v136L502-379c-49 72-103 145-157 216 268-9 546-3 821-5V0H130" id="E"/><path d="M613 24c-304 0-509-231-509-576 0-350 205-580 509-580 305 0 511 230 511 580 0 345-206 576-511 576zm0-161c226 0 329-195 329-415 0-222-103-419-329-419-223 0-326 196-326 419 0 220 103 415 326 415" id="F"/><path d="M338-670V0H158v-1118h173l1 207c72-158 192-221 342-221 226 0 378 139 378 422V0H872v-695c0-172-96-275-252-275-161 0-282 109-282 300" id="G"/><path d="M628 24c-324 0-524-230-524-574 0-343 198-582 503-582 237 0 487 146 487 559v75H286c9 234 145 362 343 362 132 0 231-58 273-172l174 48C1024-91 857 24 628 24zM287-650h624c-17-190-120-322-304-322-192 0-309 151-320 322" id="H"/><g id="b"><use transform="matrix(0.0087890625,0,0,0.0087890625,0,0)" xlink:href="#E"/><use transform="matrix(0.0087890625,0,0,0.0087890625,11.3203125,0)" xlink:href="#F"/><use transform="matrix(0.0087890625,0,0,0.0087890625,22.11328125,0)" xlink:href="#G"/><use transform="matrix(0.0087890625,0,0,0.0087890625,32.748046875,0)" xlink:href="#H"/></g><path d="M180 0v-1490h528c311 0 458 177 458 395 0 191-114 278-244 313v14c139 9 302 137 302 371 0 225-148 397-499 397H180zm190-168h350c232 0 321-102 321-231 0-149-120-277-311-277H370v508zm0-668h328c160 0 286-101 286-255 0-129-87-231-280-231H370v486" id="I"/><use transform="matrix(0.0087890625,0,0,0.0087890625,0,0)" xlink:href="#I" id="c"/><use transform="matrix(0.0087890625,0,0,0.0087890625,0,0)" xlink:href="#w" id="d"/><path d="M458 0L52-1490h194c108 439 233 855 324 1313 92-459 221-873 331-1313h216c110 438 234 854 330 1307 92-455 216-869 323-1307h196L1558 0h-221l-256-944c-26-95-50-200-73-331-22 122-44 223-73 331L680 0H458" id="J"/><path d="M657 26c-323 0-524-166-541-416h195c15 169 171 246 346 246 202 0 356-106 356-265 5-203-294-238-475-293-239-73-380-191-380-389 0-252 224-419 512-419 294 0 499 171 508 396H992c-17-145-151-228-328-228-193 0-321 102-321 242 0 156 175 211 284 241l149 41c160 44 422 134 422 412 0 244-197 432-541 432" id="K"/><g id="e"><use transform="matrix(0.008173828125000001,0,0,0.008173828125000001,0,0)" xlink:href="#w"/><use transform="matrix(0.008173828125000001,0,0,0.008173828125000001,10.601455078125001,0)" xlink:href="#J"/><use transform="matrix(0.008173828125000001,0,0,0.008173828125000001,27.096240234375003,0)" xlink:href="#K"/></g><path d="M783 20c-382 0-661-292-661-764 0-473 279-766 661-766 302 0 548 182 601 489h-190c-42-204-217-313-411-313-268 0-476 208-476 590 0 381 209 588 476 588 195 0 369-110 411-313h190c-52 303-296 489-601 489" id="L"/><path d="M537 14c-226 0-379-139-379-422v-710h180v695c0 172 97 275 253 275 160 0 281-109 281-300v-670h181V0H879v-209C806-46 684 14 537 14" id="M"/><path d="M577 24c-279 0-473-224-473-580 0-354 195-576 474-576 218 0 287 134 324 193h14v-551h180V0H922v-173h-20C865-111 790 24 577 24zm27-161c203 0 314-172 314-421 0-247-108-413-314-413-212 0-317 181-317 413 0 235 108 421 317 421" id="N"/><g id="f"><use transform="matrix(0.008173828125000001,0,0,0.008173828125000001,0,0)" xlink:href="#L"/><use transform="matrix(0.008173828125000001,0,0,0.008173828125000001,12.228046875000002,0)" xlink:href="#A"/><use transform="matrix(0.008173828125000001,0,0,0.008173828125000001,16.282265625,0)" xlink:href="#F"/><use transform="matrix(0.008173828125000001,0,0,0.008173828125000001,26.3197265625,0)" xlink:href="#M"/><use transform="matrix(0.008173828125000001,0,0,0.008173828125000001,36.218232421875,0)" xlink:href="#N"/></g><path d="M600 0L52-1490h200c166 485 304 806 458 1336 156-533 285-846 449-1336h202L819 0H600" id="O"/><path d="M158 0v-1118h174v172h12c41-113 157-188 290-188 26 0 70 2 91 3v181c-11-2-60-10-108-10-161 0-279 109-279 260V0H158" id="P"/><g id="g"><use transform="matrix(0.008173828125000001,0,0,0.008173828125000001,0,0)" xlink:href="#O"/><use transform="matrix(0.008173828125000001,0,0,0.008173828125000001,11.549619140625001,0)" xlink:href="#z"/><use transform="matrix(0.008173828125000001,0,0,0.008173828125000001,15.603837890625002,0)" xlink:href="#P"/><use transform="matrix(0.008173828125000001,0,0,0.008173828125000001,22.167421875000002,0)" xlink:href="#C"/><use transform="matrix(0.008173828125000001,0,0,0.008173828125000001,27.643886718750004,0)" xlink:href="#M"/><use transform="matrix(0.008173828125000001,0,0,0.008173828125000001,37.542392578125,0)" xlink:href="#y"/><use transform="matrix(0.008173828125000001,0,0,0.008173828125000001,46.942294921875,0)" xlink:href="#A"/></g><path d="M158 418v-1536h174v179h20c37-59 106-193 324-193 279 0 474 222 474 576 0 356-194 580-473 580-213 0-288-135-325-197h-14v591H158zm492-555c209 0 317-186 317-421 0-232-105-413-317-413-206 0-314 166-314 413 0 249 111 421 314 421" id="Q"/><g id="h"><use transform="matrix(0.008173828125000001,0,0,0.008173828125000001,0,0)" xlink:href="#Q"/><use transform="matrix(0.008173828125000001,0,0,0.008173828125000001,10.249980468750001,0)" xlink:href="#P"/><use transform="matrix(0.008173828125000001,0,0,0.008173828125000001,16.813564453125004,0)" xlink:href="#z"/><use transform="matrix(0.008173828125000001,0,0,0.008173828125000001,20.867783203125004,0)" xlink:href="#x"/><use transform="matrix(0.008173828125000001,0,0,0.008173828125000001,30.194121093750006,0)" xlink:href="#y"/><use transform="matrix(0.008173828125000001,0,0,0.008173828125000001,39.594023437500006,0)" xlink:href="#C"/><use transform="matrix(0.008173828125000001,0,0,0.008173828125000001,44.907011718750006,0)" xlink:href="#H"/></g><path d="M613 24c-304 0-509-231-509-576 0-350 205-580 509-580 216 0 392 114 453 309l-173 49c-33-115-133-197-280-197-223 0-326 196-326 419 0 220 103 415 326 415 150 0 252-85 285-206l172 49C1010-95 832 24 613 24" id="R"/><g id="i"><use transform="matrix(0.008173828125000001,0,0,0.008173828125000001,0,0)" xlink:href="#R"/><use transform="matrix(0.008173828125000001,0,0,0.008173828125000001,9.563378906250001,0)" xlink:href="#A"/><use transform="matrix(0.008173828125000001,0,0,0.008173828125000001,13.617597656250002,0)" xlink:href="#F"/><use transform="matrix(0.008173828125000001,0,0,0.008173828125000001,23.655058593750002,0)" xlink:href="#M"/><use transform="matrix(0.008173828125000001,0,0,0.008173828125000001,33.553564453125006,0)" xlink:href="#N"/></g><path d="M218-607c0-325 108-727 258-974h175c-155 315-250 682-250 974 0 265 78 531 250 886H476C306-10 218-315 218-607" id="S"/><path d="M180 0v-1490h510c348 0 508 209 508 474 0 266-160 477-507 477H370V0H180zm190-706h312c236 0 327-133 327-310 0-176-91-307-329-307H370v617" id="T"/><path d="M96 279C273-86 346-350 346-607c0-292-95-659-250-974h175c150 246 258 650 258 974 0 297-91 602-258 886H96" id="U"/><g id="j"><use transform="matrix(0.008173828125000001,0,0,0.008173828125000001,0,0)" xlink:href="#S"/><use transform="matrix(0.008173828125000001,0,0,0.008173828125000001,6.105849609375,0)" xlink:href="#O"/><use transform="matrix(0.008173828125000001,0,0,0.008173828125000001,17.65546875,0)" xlink:href="#T"/><use transform="matrix(0.008173828125000001,0,0,0.008173828125000001,28.346835937500003,0)" xlink:href="#L"/><use transform="matrix(0.008173828125000001,0,0,0.008173828125000001,40.57488281250001,0)" xlink:href="#U"/></g><path d="M653-1490V0H466v-1314h-10L96-1047v-204l324-239h233" id="V"/><path d="M200 0l662-1311v-12H98v-167h963v177L400 0H200" id="W"/><path d="M154 0v-137l495-537c165-179 249-281 249-418 0-156-121-253-280-253-170 0-278 110-278 278H158c0-264 200-443 465-443 266 0 455 183 455 416 0 161-73 288-336 568L416-179v12h687V0H154" id="X"/><path d="M295 13c-75 0-135-60-135-135s60-135 135-135 135 60 135 135S370 13 295 13" id="Y"/><path d="M635 20c-292 0-500-160-510-396h192c11 142 145 229 315 229 187 0 323-105 323-260 0-161-125-274-346-274H488v-165h121c174 0 294-100 294-254 0-148-104-245-266-245-152 0-291 85-297 230H157c8-234 222-395 484-395 278 0 448 188 448 400 0 168-95 291-247 336v12c190 31 301 169 301 357 0 244-216 425-508 425" id="Z"/><path d="M646 20c-332 0-524-278-524-764 0-483 194-766 524-766s524 283 524 766c0 485-191 764-524 764zm0-166c218 0 341-220 341-598 0-380-123-601-341-601s-341 222-341 601c0 378 123 598 341 598" id="aa"/><path d="M692-1560L212 224H46l480-1784h166" id="ab"/><path d="M646 20c-249 0-524-159-524-708 0-524 209-822 547-822 250 0 431 161 467 395H950c-33-129-126-227-281-227-229 0-367 208-367 566h12c80-124 212-198 367-198 255 0 467 205 467 493 0 278-198 501-502 501zm0-167c179 0 318-148 318-334 0-182-133-328-313-328-181 0-322 156-322 330 0 176 134 332 317 332" id="ac"/><g id="k"><use transform="matrix(0.007063802083333334,0,0,0.007063802083333334,0,0)" xlink:href="#V"/><use transform="matrix(0.007063802083333334,0,0,0.007063802083333334,5.884147135416668,0)" xlink:href="#W"/><use transform="matrix(0.007063802083333334,0,0,0.007063802083333334,14.071093750000003,0)" xlink:href="#X"/><use transform="matrix(0.007063802083333334,0,0,0.007063802083333334,22.893782552083337,0)" xlink:href="#Y"/><use transform="matrix(0.007063802083333334,0,0,0.007063802083333334,26.672916666666673,0)" xlink:href="#Z"/><use transform="matrix(0.007063802083333334,0,0,0.007063802083333334,35.60862630208334,0)" xlink:href="#V"/><use transform="matrix(0.007063802083333334,0,0,0.007063802083333334,41.492773437500006,0)" xlink:href="#Y"/><use transform="matrix(0.007063802083333334,0,0,0.007063802083333334,45.29309895833334,0)" xlink:href="#aa"/><use transform="matrix(0.007063802083333334,0,0,0.007063802083333334,54.052213541666674,0)" xlink:href="#Y"/><use transform="matrix(0.007063802083333334,0,0,0.007063802083333334,57.85253906250001,0)" xlink:href="#aa"/><use transform="matrix(0.007063802083333334,0,0,0.007063802083333334,66.97897135416667,0)" xlink:href="#ab"/><use transform="matrix(0.007063802083333334,0,0,0.007063802083333334,72.19205729166667,0)" xlink:href="#V"/><use transform="matrix(0.007063802083333334,0,0,0.007063802083333334,78.07620442708334,0)" xlink:href="#ac"/></g><g id="l"><use transform="matrix(0.008173828125000001,0,0,0.008173828125000001,0,0)" xlink:href="#T"/><use transform="matrix(0.008173828125000001,0,0,0.008173828125000001,10.691367187500001,0)" xlink:href="#M"/><use transform="matrix(0.008173828125000001,0,0,0.008173828125000001,20.589873046875002,0)" xlink:href="#B"/><use transform="matrix(0.008173828125000001,0,0,0.008173828125000001,30.839853515625002,0)" xlink:href="#A"/><use transform="matrix(0.008173828125000001,0,0,0.008173828125000001,34.894072265625,0)" xlink:href="#z"/><use transform="matrix(0.008173828125000001,0,0,0.008173828125000001,38.948291015625,0)" xlink:href="#R"/></g><path d="M538 24C308 24 148-78 108-271l171-41c32 123 123 178 257 178 156 0 256-77 256-169 0-77-54-128-164-154l-186-44c-203-48-300-148-300-305 0-192 176-326 414-326 230 0 351 112 402 269l-163 42c-31-80-94-158-238-158-133 0-233 69-233 162 0 83 57 129 188 160l169 40c203 48 298 149 298 302 0 196-179 339-441 339" id="ad"/><g id="m"><use transform="matrix(0.008173828125000001,0,0,0.008173828125000001,0,0)" xlink:href="#ad"/><use transform="matrix(0.008173828125000001,0,0,0.008173828125000001,8.835908203125001,0)" xlink:href="#M"/><use transform="matrix(0.008173828125000001,0,0,0.008173828125000001,18.7344140625,0)" xlink:href="#B"/><use transform="matrix(0.008173828125000001,0,0,0.008173828125000001,28.984394531250004,0)" xlink:href="#G"/><use transform="matrix(0.008173828125000001,0,0,0.008173828125000001,38.8747265625,0)" xlink:href="#H"/><use transform="matrix(0.008173828125000001,0,0,0.008173828125000001,48.63427734375,0)" xlink:href="#C"/></g><use transform="matrix(0.008173828125000001,0,0,0.008173828125000001,0,0)" xlink:href="#X" id="n"/><use transform="matrix(0.008173828125000001,0,0,0.008173828125000001,0,0)" xlink:href="#V" id="o"/><path d="M180 0v-1490h510c348 0 508 194 508 460 0 198-88 351-276 417L1256 0h-220L726-579c-117 2-238 0-356 1V0H180zm190-747h312c235 0 327-108 327-283 0-177-92-293-329-293H370v576" id="ae"/><path d="M611 442c-248 0-391-105-460-228l146-94c47 65 117 165 314 165 178 0 307-82 307-266v-224h-17C863-141 792-18 576-18c-268 0-472-195-472-546 0-346 197-568 476-568 216 0 288 133 326 193h17v-179h175V29c0 289-215 413-487 413zm-5-620c203 0 314-146 314-390 0-237-108-403-314-403-213 0-319 180-319 403 0 230 109 390 319 390" id="af"/><g id="p"><use transform="matrix(0.010850694444444444,0,0,0.010850694444444444,0,0)" xlink:href="#ae"/><use transform="matrix(0.010850694444444444,0,0,0.010850694444444444,13.975694444444445,0)" xlink:href="#H"/><use transform="matrix(0.010850694444444444,0,0,0.010850694444444444,26.931423611111104,0)" xlink:href="#af"/><use transform="matrix(0.010850694444444444,0,0,0.010850694444444444,40.55989583333333,0)" xlink:href="#z"/><use transform="matrix(0.010850694444444444,0,0,0.010850694444444444,45.94184027777778,0)" xlink:href="#F"/><use transform="matrix(0.010850694444444444,0,0,0.010850694444444444,59.26649305555555,0)" xlink:href="#G"/></g><path d="M370-1490V0H180v-1490h190" id="ag"/><g id="q"><use transform="matrix(0.008173828125000001,0,0,0.008173828125000001,0,0)" xlink:href="#ag"/><use transform="matrix(0.008173828125000001,0,0,0.008173828125000001,4.495605468750001,0)" xlink:href="#G"/><use transform="matrix(0.008173828125000001,0,0,0.008173828125000001,14.3859375,0)" xlink:href="#C"/><use transform="matrix(0.008173828125000001,0,0,0.008173828125000001,19.69892578125,0)" xlink:href="#H"/><use transform="matrix(0.008173828125000001,0,0,0.008173828125000001,29.458476562500003,0)" xlink:href="#P"/><use transform="matrix(0.008173828125000001,0,0,0.008173828125000001,36.022060546875004,0)" xlink:href="#G"/><use transform="matrix(0.008173828125000001,0,0,0.008173828125000001,45.91239257812501,0)" xlink:href="#H"/><use transform="matrix(0.008173828125000001,0,0,0.008173828125000001,55.67194335937501,0)" xlink:href="#C"/></g><path d="M409 0L70-1118h191c89 329 165 560 243 925 75-353 154-601 240-925h192c85 325 161 564 235 922 77-354 157-598 244-922h191L1267 0h-179c-86-307-176-590-250-913C763-588 675-308 588 0H409" id="ah"/><g id="r"><use transform="matrix(0.008173828125000001,0,0,0.008173828125000001,0,0)" xlink:href="#af"/><use transform="matrix(0.008173828125000001,0,0,0.008173828125000001,10.266328125000001,0)" xlink:href="#y"/><use transform="matrix(0.008173828125000001,0,0,0.008173828125000001,19.66623046875,0)" xlink:href="#C"/><use transform="matrix(0.008173828125000001,0,0,0.008173828125000001,24.979218750000005,0)" xlink:href="#H"/><use transform="matrix(0.008173828125000001,0,0,0.008173828125000001,34.436337890625005,0)" xlink:href="#ah"/><use transform="matrix(0.008173828125000001,0,0,0.008173828125000001,48.13567382812501,0)" xlink:href="#y"/><use transform="matrix(0.008173828125000001,0,0,0.008173828125000001,57.29036132812501,0)" xlink:href="#D"/></g><path d="M180 0v-1490h224l606 953c40 63 108 177 176 312-27-437-7-821-13-1265h190V0h-226C860-448 622-778 356-1262c27 476 11 792 15 1262H180" id="ai"/><path d="M158 0v-1490h180v865h22l478-493h223L593-638 1096 0H865L456-523 338-412V0H158" id="aj"/><g id="s"><use transform="matrix(0.010850694444444444,0,0,0.010850694444444444,0,0)" xlink:href="#ai"/><use transform="matrix(0.010850694444444444,0,0,0.010850694444444444,16.74262152777778,0)" xlink:href="#H"/><use transform="matrix(0.010850694444444444,0,0,0.010850694444444444,29.698350694444443,0)" xlink:href="#C"/><use transform="matrix(0.010850694444444444,0,0,0.010850694444444444,37.29383680555555,0)" xlink:href="#ah"/><use transform="matrix(0.010850694444444444,0,0,0.010850694444444444,55.078125,0)" xlink:href="#F"/><use transform="matrix(0.010850694444444444,0,0,0.010850694444444444,68.40277777777777,0)" xlink:href="#P"/><use transform="matrix(0.010850694444444444,0,0,0.010850694444444444,77.11588541666667,0)" xlink:href="#aj"/></g><g id="t"><use transform="matrix(0.010850694444444444,0,0,0.010850694444444444,0,0)" xlink:href="#y"/><use transform="matrix(0.010850694444444444,0,0,0.010850694444444444,12.47829861111111,0)" xlink:href="#R"/><use transform="matrix(0.010850694444444444,0,0,0.010850694444444444,25.17361111111111,0)" xlink:href="#R"/><use transform="matrix(0.010850694444444444,0,0,0.010850694444444444,37.868923611111114,0)" xlink:href="#H"/><use transform="matrix(0.010850694444444444,0,0,0.010850694444444444,50.82465277777778,0)" xlink:href="#ad"/><use transform="matrix(0.010850694444444444,0,0,0.010850694444444444,62.55425347222222,0)" xlink:href="#ad"/></g><g id="u"><use transform="matrix(0.010850694444444444,0,0,0.010850694444444444,0,0)" xlink:href="#R"/><use transform="matrix(0.010850694444444444,0,0,0.010850694444444444,12.6953125,0)" xlink:href="#F"/><use transform="matrix(0.010850694444444444,0,0,0.010850694444444444,26.01996527777778,0)" xlink:href="#G"/><use transform="matrix(0.010850694444444444,0,0,0.010850694444444444,39.14930555555556,0)" xlink:href="#C"/><use transform="matrix(0.010850694444444444,0,0,0.010850694444444444,46.41927083333333,0)" xlink:href="#P"/><use transform="matrix(0.010850694444444444,0,0,0.010850694444444444,54.416232638888886,0)" xlink:href="#F"/><use transform="matrix(0.010850694444444444,0,0,0.010850694444444444,67.74088541666666,0)" xlink:href="#A"/></g><g id="v"><use transform="matrix(0.010850694444444444,0,0,0.010850694444444444,0,0)" xlink:href="#A"/><use transform="matrix(0.010850694444444444,0,0,0.010850694444444444,5.381944444444445,0)" xlink:href="#z"/><use transform="matrix(0.010850694444444444,0,0,0.010850694444444444,10.76388888888889,0)" xlink:href="#ad"/><use transform="matrix(0.010850694444444444,0,0,0.010850694444444444,22.493489583333336,0)" xlink:href="#C"/></g></defs></g></svg>