<svg xmlns="http://www.w3.org/2000/svg" xmlns:xlink="http://www.w3.org/1999/xlink" xmlns:lucid="lucid" width="783" height="725.44"><g transform="translate(-479.1666666666665 -236.05557354842665)" lucid:page-tab-id="-hrxWKjH_DNl"><path d="M0 0h1500v1000H0z" fill="#fff"/><path d="M581.16 447.06a8 8 0 0 1 8-8h563.5a8 8 0 0 1 8 8v283.9a8 8 0 0 1-8 8h-563.5a8 8 0 0 1-8-8z" fill="#fff" fill-opacity="0"/><path d="M607.53 439.06h12.25m12.25 0h12.25m12.25 0h12.25m12.25 0h12.25m12.25 0h12.25m12.25 0h12.25m12.25 0h12.25m12.25 0h12.26m12.24 0h12.25m12.24 0h12.25m12.24 0h12.25m12.24 0h12.25m12.24 0h12.25m12.24 0h12.25m12.24 0h12.25m12.24 0h12.25m12.24 0h12.25m12.24 0h12.25m12.24 0h12.25m12.24 0h12.25m12.24 0h12.25m12.24 0h12.25m12.24 0h6.13a8 8 0 0 1 8 8v5.92m0 11.82v11.83m0 11.83v11.83m0 11.82v11.83m0 11.83v11.83m0 11.84v11.83m0 11.83v11.83m0 11.83v11.82m0 11.83v11.84m0 11.83v11.83m0 11.83v11.83m0 11.83v11.82m0 11.83v5.9a8 8 0 0 1-8 8h-6.13m-12.25 0h-12.26m-12.25 0h-12.26m-12.25 0h-12.26m-12.25 0h-12.26m-12.25 0h-12.26m-12.25 0h-12.26m-12.25 0h-12.26m-12.25 0h-12.26m-12.25 0h-12.26m-12.25 0h-12.26m-12.25 0h-12.26m-12.25 0h-12.26m-12.25 0h-12.26m-12.25 0h-12.26m-12.25 0h-12.26m-12.25 0h-12.26m-12.25 0H730m-12.25 0h-12.25m-12.25 0h-12.25m-12.25 0h-12.25m-12.25 0h-12.25m-12.25 0h-12.25m-12.25 0h-6.12a8 8 0 0 1-8-8v-5.9m0-11.83V701.4m0-11.84v-11.83m0-11.83v-11.83m0-11.83V630.4m0-11.82v-11.83m0-11.82V583.1m0-11.83v-11.83m0-11.83V535.8m0-11.83v-11.83m0-11.83v-11.84m0-11.83V464.8m0-11.82v-5.92a8 8 0 0 1 8-8h6.12" stroke="#00a4a6" stroke-width="3" fill="none"/><use xlink:href="#a" transform="matrix(1,0,0,1,581.1570713256174,459.0608924744072) translate(211.79931640625 17.4375)"/><use xlink:href="#b" transform="matrix(1,0,0,1,581.1570713256174,459.0608924744072) translate(307.47705078125 17.4375)"/><use xlink:href="#c" transform="matrix(1,0,0,1,581.1570713256174,459.0608924744072) translate(355.78173828125 17.4375)"/><path d="M480.67 245.56a8 8 0 0 1 8-8h764a8 8 0 0 1 8 8V952a8 8 0 0 1-8 8h-764a8 8 0 0 1-8-8z" stroke="#242f3e" stroke-width="3" fill="#fff" fill-opacity="0"/><path d="M480.67 237.56h56v56h-56v-56z" stroke="#fff" stroke-opacity="0" fill="#242f3e"/><path d="M498.9 263.43c-.05.47.03.87.16 1.33.12.38.28.7.5 1.07.03.1.07.2.07.34 0 .2-.12.35-.3.45l-.93.62c-.13.08-.25.12-.37.12-.17 0-.33-.07-.45-.2-.2-.22-.37-.43-.54-.7-.16-.25-.3-.53-.45-.87-1.12 1.37-2.64 2.1-4.4 2.06-1.15.05-2.14-.3-2.96-1.1-.78-.77-1.15-1.74-1.1-2.84-.05-1.22.4-2.28 1.35-3.08 1.06-.84 2.3-1.22 3.64-1.15.58 0 1.03.02 1.6.1.58.1 1.1.2 1.73.33v-1.1c.08-.88-.17-1.67-.7-2.37-.74-.57-1.56-.8-2.46-.7-.53 0-1.02.06-1.6.2-.57.13-1.02.28-1.6.5l-.5.2h-.24c-.2 0-.32-.16-.32-.46v-.74c0-.2.04-.34.12-.5.12-.16.24-.26.4-.33.67-.3 1.2-.5 1.9-.68.78-.2 1.48-.3 2.3-.28 1.48-.12 2.8.27 3.9 1.2.94 1.05 1.35 2.3 1.23 3.68zm-6.1 2.27c.6 0 1.08-.08 1.62-.28.57-.2 1.02-.5 1.43-.95.25-.28.4-.58.5-.95.12-.44.16-.84.16-1.3v-.66c-.52-.1-.94-.17-1.43-.2h-1.4c-.82-.08-1.56.1-2.2.58-.55.45-.8 1.04-.75 1.73-.04.6.12 1.15.53 1.6.45.36 1 .5 1.56.43zm12 1.6c-.2.02-.4-.02-.57-.15-.17-.17-.25-.35-.33-.6l-3.5-11.5-.1-.62c0-.24.1-.36.36-.36h1.47c.2-.02.37.02.58.14.17.2.26.37.3.6l2.5 9.96 2.38-9.94c0-.23.1-.43.3-.6.15-.1.36-.15.57-.14h1.2c.23 0 .4.03.6.14.17.18.25.37.3.6l2.33 9.94 2.55-10c.04-.22.16-.4.32-.58.17-.1.38-.17.58-.14h1.4c.16-.02.33.1.37.3v.3s0 .2-.13.37l-3.6 11.53c-.05.23-.13.43-.3.6-.2.1-.37.15-.57.13h-1.28c-.24.03-.45-.02-.6-.15-.18-.16-.26-.36-.3-.58l-2.3-9.6-2.3 9.6c-.04.22-.12.42-.3.6-.2.12-.4.17-.6.14zm19.22.4c-.82 0-1.52-.08-2.3-.27-.65-.12-1.15-.3-1.72-.6-.2-.1-.37-.23-.46-.4-.08-.15-.12-.3-.12-.44v-.76c0-.3.13-.46.33-.46.12-.02.2-.02.3 0l.36.15c.58.24 1.03.4 1.6.5.63.15 1.16.2 1.82.2.78.06 1.47-.1 2.17-.5.5-.3.77-.8.73-1.4.04-.4-.12-.75-.37-1.03-.45-.4-.94-.65-1.52-.8l-2.17-.68c-.95-.25-1.73-.73-2.38-1.5-.5-.65-.75-1.35-.75-2.18 0-.6.12-1.08.4-1.6.3-.5.62-.9 1.07-1.23.5-.37 1-.6 1.6-.76.66-.18 1.2-.27 1.9-.25.32-.04.6-.04.98 0l1 .14.8.24.66.25c.17.12.3.23.45.38.1.17.14.32.14.5v.7c0 .33-.13.48-.37.48-.2-.02-.37-.08-.58-.18-.95-.42-1.8-.6-2.88-.57-.7-.05-1.32.08-1.97.4-.5.3-.74.8-.7 1.35 0 .4.12.76.45 1.06.5.4 1 .64 1.6.8l2.1.7c.94.23 1.68.7 2.3 1.42.5.63.7 1.3.7 2.1 0 .63-.13 1.16-.37 1.72-.3.55-.62.96-1.1 1.32-.5.4-1 .67-1.6.85-.75.24-1.4.34-2.15.35zM526.77 275.04c-5.6 3.8-11.36 5.57-18.15 5.56-8.55.04-15.83-2.74-22.16-8.45-.5-.42 0-1 .5-.67 7.06 4.05 14 5.9 22.2 5.88 6.08-.03 11.27-1.08 16.92-3.45.82-.34 1.5.55.7 1.14z" stroke="#fff" stroke-opacity="0" fill="#fff"/><path d="M528.83 272.75c-.64-.8-4.16-.38-5.75-.2-.48 0-.54-.35-.1-.66 2.8-1.98 7.4-1.42 8-.75.58.67-.16 5.3-2.8 7.5-.4.33-.77.14-.6-.3.55-1.52 1.87-4.83 1.25-5.6z" stroke="#fff" stroke-opacity="0" fill="#fff"/><use xlink:href="#d" transform="matrix(1,0,0,1,551.6666666666665,257.55557354842665) translate(0 16.216875)"/><use xlink:href="#e" transform="matrix(1,0,0,1,551.6666666666665,257.55557354842665) translate(42.544775390625006 16.216875)"/><path d="M620.3 377.1a8 8 0 0 1 8-8H1112a8 8 0 0 1 8 8V812a8 8 0 0 1-8 8H628.3a8 8 0 0 1-8-8z" stroke="#8c4fff" stroke-width="3" fill="#fff" fill-opacity="0"/><path d="M620.3 369.1h56v56h-56v-56z" stroke="#000" stroke-opacity="0" fill="#8c4fff"/><path d="M663.66 398.56l-4.1-1.77v14.67c3.55-.48 4.1-4.16 4.1-4.3v-8.6zm-5.53 12.95v-14.7l-4.23 1.76v8.68c0 .07.63 3.86 4.23 4.27zm.44-16.44c.2-.07.4-.07.54.04l5.54 2.35c.28.12.43.37.43.63v9.16c-.23 2.02-1.88 5.7-6.35 5.7-4.3 0-5.96-3.68-6.23-5.6v-9.26c0-.26.2-.5.42-.63l5.65-2.4zm7.9.92l-7.63-3.38-7.76 3.27v9.97c0 .08-.04 4 2.35 6.48 1.25 1.32 3.06 2 5.3 2 2.27 0 4.03-.68 5.36-2 2.42-2.47 2.38-6.44 2.38-6.48v-9.86zm-1.4 17.3c-1.57 1.6-3.68 2.42-6.35 2.42-2.62 0-4.74-.8-6.3-2.43-2.83-2.87-2.7-7.28-2.7-7.46v-10.4c0-.3.14-.56.42-.63l8.43-3.57c.2-.07.4-.07.54 0l8.36 3.68c.28.1.43.37.43.62v10.34c0 .2.03 4.56-2.83 7.44zm-29.4-10.23h11.2v1.4h-11.2c-3.92 0-6.74-2.84-6.97-7.03v-.52c0-3.53 1.84-5.92 5.33-7 0-.28-.04-.65-.04-.87 0-4.08 2.22-7.65 5.63-9.05 4.63-1.88 9.84-1.25 12.74 1.54 1.06 1.03 1.88 2.17 2.47 3.5.86-.63 1.96-.92 3.3-.85 2.5.1 4.42 2.4 4.82 5.6 2.07.18 3.5 1.25 4.2 3.23l-1.3.48c-.6-1.62-1.7-2.35-3.57-2.35-.36 0-.68-.26-.68-.67-.2-3.23-2-4.82-3.56-4.9-1.34-.06-2.32.3-2.9 1.1-.16.2-.4.3-.67.27-.25-.04-.48-.22-.56-.44-.6-1.56-1.4-2.84-2.55-3.95-2.52-2.43-7.14-2.94-11.26-1.25-2.86 1.18-4.74 4.2-4.74 7.73 0 .37.04.96.08 1.32.04.37-.16.7-.5.78-3.23.8-4.87 2.72-4.87 5.77v.4c.2 3.5 2.4 5.75 5.57 5.75z" stroke="#000" stroke-opacity="0" fill="#fff"/><use xlink:href="#f" transform="matrix(1,0,0,1,691.2951528248408,389.11109311823986) translate(0 16.216875)"/><use xlink:href="#g" transform="matrix(1,0,0,1,691.2951528248408,389.11109311823986) translate(55.70463867187501 16.216875)"/><use xlink:href="#h" transform="matrix(1,0,0,1,691.2951528248408,389.11109311823986) translate(115.07932617187501 16.216875)"/><use xlink:href="#i" transform="matrix(1,0,0,1,691.2951528248408,389.11109311823986) translate(163.59099609375002 16.216875)"/><use xlink:href="#j" transform="matrix(1,0,0,1,691.2951528248408,389.11109311823986) translate(0 34.269329427083335)"/><path d="M680.67 509.45a8 8 0 0 1 8-8h344a8 8 0 0 1 8 8v184a8 8 0 0 1-8 8h-344a8 8 0 0 1-8-8z" stroke="#7aa116" stroke-width="3" fill="#fff" fill-opacity="0"/><path d="M680.67 501.45h56v56h-56v-56z" stroke="#fff" stroke-opacity="0" fill="#7aa116"/><path d="M724.05 523.62c-.16-.16-.34-.25-.56-.25h-5.16v-5.57c-.03-2.54-.97-4.7-2.84-6.4-1.9-1.84-4.15-2.75-6.77-2.75-2.65 0-4.9.83-6.8 2.62-1.9 1.7-2.87 3.87-2.9 6.4v5.66h-5.15c-.25 0-.44.08-.6.25-.15.17-.2.33-.2.58v25.3c0 .4.33.8.8.8h29.58c.46 0 .8-.4.8-.8v-25.3c0-.2-.05-.37-.2-.54zm-23.46-5.9c.02-2.13.8-3.87 2.36-5.3 1.62-1.48 3.52-2.2 5.74-2.2 2.2 0 4.12.76 5.7 2.25 1.54 1.42 2.32 3.2 2.32 5.33v5.57h-16.17zm22.08 30.95h-28.02v-23.7h28.02z" stroke="#fff" stroke-opacity="0" fill="#fff"/><path d="M707.86 538.76V545h1.6v-6.23c2.13-.4 3.63-2.2 3.64-4.35 0-2.43-1.98-4.4-4.42-4.43-2.2-.04-4.05 1.5-4.42 3.67-.4 2.4 1.2 4.68 3.6 5.1zm.82-7.16c.8 0 1.45.27 2 .82.55.56.83 1.22.82 2 0 1.55-1.22 2.8-2.75 2.82h-.07c-1.55.12-2.92-1.05-3.03-2.6-.12-1.57 1.05-2.94 2.6-3.04.16-.02.28-.02.43 0z" stroke="#fff" stroke-opacity="0" fill="#fff"/><use xlink:href="#k" transform="matrix(1,0,0,1,751.6666666666664,521.4476793924119) translate(0 16.216875)"/><use xlink:href="#l" transform="matrix(1,0,0,1,751.6666666666664,521.4476793924119) translate(53.21979492187501 16.216875)"/><use xlink:href="#m" transform="matrix(1,0,0,1,751.6666666666664,521.4476793924119) translate(112.03866210937501 16.216875)"/><path d="M540.67 316.9a6 6 0 0 1 6-6h648a6 6 0 0 1 6 6V874a6 6 0 0 1-6 6h-648a6 6 0 0 1-6-6z" fill="#fff" fill-opacity="0"/><path d="M564.67 310.9h12m12 0h12m12 0h12m12 0h12m12 0h12m12 0h12m12 0h12m12 0h12m12 0h12m12 0h12m12 0h12m12 0h12m12 0h12m12 0h12m12 0h12m12 0h12m12 0h12m12 0h12m12 0h12m12 0h12m12 0h12m12 0h12m12 0h12m12 0h12m12 0h12m12 0h12m12 0h6a6 6 0 0 1 6 6v6.05m0 12.12v12.1m0 12.12v12.1m0 12.1v12.12m0 12.1v12.12m0 12.1v12.12m0 12.1v12.13m0 12.1v12.1m0 12.12v12.1m0 12.12v12.1m0 12.12v12.1m0 12.12v12.1m0 12.13v12.12m0 12.1v12.12m0 12.1v12.12m0 12.1v12.12m0 12.1v12.12m0 12.1v12.13m0 12.1v12.12m0 12.1v12.12m0 12.1v12.12m0 12.1v12.1m0 12.12v12.1m0 12.13V874a6 6 0 0 1-6 6h-6m-12 0h-12m-12 0h-12m-12 0h-12m-12 0h-12m-12 0h-12m-12 0h-12m-12 0h-12m-12 0h-12m-12 0h-12m-12 0h-12m-12 0h-12m-12 0h-12m-12 0h-12m-12 0h-12m-12 0h-12m-12 0h-12m-12 0h-12m-12 0h-12m-12 0h-12m-12 0h-12m-12 0h-12m-12 0h-12m-12 0h-12m-12 0h-12m-12 0h-12m-12 0h-12m-12 0h-6a6 6 0 0 1-6-6v-6.05m0-12.12v-12.1m0-12.12v-12.1m0-12.1v-12.12m0-12.1v-12.12m0-12.1v-12.12m0-12.12v-12.1m0-12.12v-12.1m0-12.12v-12.1m0-12.12v-12.1m0-12.12v-12.1m0-12.12V601.5m0-12.1v-12.12m0-12.1v-12.12m0-12.1v-12.12m0-12.1V504.6m0-12.1V480.4m0-12.1v-12.13m0-12.1v-12.12m0-12.1v-12.12m0-12.1V383.5m0-12.1v-12.1m0-12.12v-12.12m0-12.1v-6.06a6 6 0 0 1 6-6h6" stroke="#00a4a6" stroke-width="3" fill="none"/><path d="M540.67 310.9h56v56h-56v-56z" stroke="#fff" stroke-opacity="0" fill="#00a4a6"/><path d="M584.5 340.26l-5.95-7.37 5.96-7.4h-26.16v-2.08c.98-.32 1.62-1.16 1.62-2.2-.1-1.15-1.02-2.02-2.16-2.14-1.3-.08-2.44.87-2.53 2.15 0 1.03.63 1.87 1.58 2.2v33.88h-4.02v1.6h9.44v-1.6h-3.93v-17.04zm-26.95-19.75c.4-.03.76.33.76.73 0 .44-.3.75-.72.75-.4.04-.76-.3-.76-.7v-.05c0-.4.3-.72.73-.72zm23.6 6.62l-4.66 5.77 4.65 5.73h-22.8v-11.5z" stroke="#fff" stroke-opacity="0" fill="#fff"/><g><use xlink:href="#n" transform="matrix(1,0,0,1,611.6666666666665,330.8986263600872) translate(0 21.52777777777778)"/></g><path d="M602.17 608.25H600v-25.72c0-.57-.38-1.08-.9-1.34l-.12-.07c-2.94-1.28-5.94-2.68-10.28-2.68-4.53 0-7.85 1.46-11.17 3.12-.5.26-.83.77-.83 1.28v25.4h-2.1V580.8c3.57-2.87 8.68-4.52 14.1-4.52 5.1 0 9.96 1.46 13.47 4.02v27.95zM588.7 573.4c-6.38 0-12.45 2.05-16.53 5.62-.32.32-.45.7-.45 1.1v29.54c0 .83.64 1.47 1.4 1.47h5.05c.83 0 1.47-.64 1.47-1.47v-25.92c2.8-1.34 5.5-2.36 9.06-2.36 3.38 0 5.87.96 8.36 2.1v26.18c0 .83.64 1.47 1.47 1.47h5.1c.77 0 1.4-.64 1.4-1.47v-30.13c0-.38-.18-.83-.5-1.08-4.02-3.26-9.83-5.05-15.83-5.05zm-.32 47.5c-16.02 0-28.98-12.97-28.98-29 0-16 12.96-28.96 28.98-28.96s28.98 12.95 28.98 28.97c0 16.03-12.96 29-28.98 29zm0-60.9c-17.6 0-31.9 14.3-31.9 31.9 0 17.63 14.3 31.93 31.9 31.93 17.62 0 31.9-14.3 31.9-31.92 0-17.6-14.28-31.9-31.9-31.9z" stroke="#000" stroke-opacity="0" fill="#8c4fff"/><g><use xlink:href="#o" transform="matrix(1,0,0,1,526.4687267613718,632.826426063469) translate(31.425795898437496 16.216875)"/><use xlink:href="#p" transform="matrix(1,0,0,1,526.4687267613718,632.826426063469) translate(28.650781249999994 36.47162109375)"/></g><path d="M820 560h100v100H820V560z" stroke="#000" stroke-opacity="0" fill="#ed7100"/><path d="M853.76 626.24h31.22v-31.22h-31.22v31.22zm33.74-31.22h4.97v2.45h-4.97v5.04h4.97v2.53h-4.97v3.7h4.97v2.53h-4.97v4.97h4.97v2.52h-4.97v4.97h4.97v2.52h-4.97v.2c0 1.27-1.05 2.32-2.3 2.32h-.22v4.97h-2.45v-4.97h-5.04v4.97h-2.53v-4.97h-3.7v4.97h-2.53v-4.97h-4.97v4.97h-2.52v-4.97h-4.97v4.97h-2.52v-4.97h-.2c-1.27 0-2.32-1.05-2.32-2.3v-.22h-3.7v-2.52h3.7v-4.97h-3.7v-2.52h3.7v-4.97h-3.7v-2.52h3.7v-3.7h-3.7v-2.53h3.7v-5.03h-3.7v-2.45h3.7v-.2c0-1.27 1.05-2.32 2.3-2.32h.22v-4.97h2.52v4.97h4.97v-4.97h2.52v4.97h4.97v-4.97h2.52v4.97h3.7v-4.97h2.53v4.97h5.03v-4.97h2.45v4.97h.2c1.27 0 2.32 1.05 2.32 2.3v.22zm-16.24 47.32c0 .07-.07.14-.14.14h-33.46c-.07 0-.14-.07-.14-.14v-33.46c0-.07.07-.14.14-.14H845v-2.52h-7.34c-1.47 0-2.66 1.2-2.66 2.66v33.46c0 1.47 1.2 2.66 2.66 2.66h33.46c1.47 0 2.66-1.2 2.66-2.66v-6.1h-2.52v6.1zM905 577.66v33.46c0 1.47-1.2 2.66-2.66 2.66H895v-2.52h7.34c.07 0 .14-.07.14-.14v-33.46c0-.07-.07-.14-.14-.14h-33.46c-.07 0-.14.07-.14.14V585h-2.52v-7.34c0-1.47 1.2-2.66 2.66-2.66h33.46c1.47 0 2.66 1.2 2.66 2.66z" stroke="#000" stroke-opacity="0" fill="#fff"/><g><use xlink:href="#q" transform="matrix(1,0,0,1,790,669) translate(12.465277777777786 21.52777777777778)"/><use xlink:href="#r" transform="matrix(1,0,0,1,790,669) translate(104.3923611111111 21.52777777777778)"/></g><defs><path d="M52 0l541-1490h220L1361 0h-200l-149-416H398L254 0H52zm404-582h497c-103-290-145-390-251-756-108 377-145 460-246 756" id="s"/><path d="M481 0L54-1118h197c107 314 236 620 325 951 87-331 217-637 324-951h197L670 0H481" id="t"/><path d="M471 26C259 26 90-98 90-318c0-256 228-303 435-329 202-27 287-16 287-108 0-139-79-219-234-219-161 0-248 86-283 164l-173-57c86-203 278-265 451-265 150 0 419 46 419 395V0H815v-152h-12C765-73 660 26 471 26zm31-159c199 0 310-134 310-271v-155c-30 35-226 55-295 64-131 17-246 59-246 186 0 116 97 176 231 176" id="u"/><path d="M158 0v-1118h180V0H158zm91-1301c-68 0-125-53-125-119s57-119 125-119c69 0 126 53 126 119s-57 119-126 119" id="v"/><path d="M338-1490V0H158v-1490h180" id="w"/><path d="M677 24c-213 0-288-135-325-197h-20V0H158v-1490h180v551h14c37-59 106-193 324-193 279 0 474 222 474 576 0 356-194 580-473 580zm-27-161c209 0 317-186 317-421 0-232-105-413-317-413-206 0-314 166-314 413 0 249 111 421 314 421" id="x"/><path d="M598-1118v154H368v674c0 100 37 144 132 144 23 0 62-6 92-12L629-6c-37 13-88 20-134 20-193 0-307-107-307-290v-688H20v-154h168v-266h180v266h230" id="y"/><path d="M140 405l46-156c120 36 205 19 263-150l32-93L54-1118h197c107 313 237 620 324 950 87-331 219-637 326-950h196L606 167c-68 178-176 259-334 259-64 0-113-12-132-21" id="z"/><g id="a"><use transform="matrix(0.0087890625,0,0,0.0087890625,0,0)" xlink:href="#s"/><use transform="matrix(0.0087890625,0,0,0.0087890625,11.197265625,0)" xlink:href="#t"/><use transform="matrix(0.0087890625,0,0,0.0087890625,21.2255859375,0)" xlink:href="#u"/><use transform="matrix(0.0087890625,0,0,0.0087890625,31.3330078125,0)" xlink:href="#v"/><use transform="matrix(0.0087890625,0,0,0.0087890625,35.6923828125,0)" xlink:href="#w"/><use transform="matrix(0.0087890625,0,0,0.0087890625,40.0517578125,0)" xlink:href="#u"/><use transform="matrix(0.0087890625,0,0,0.0087890625,50.1591796875,0)" xlink:href="#x"/><use transform="matrix(0.0087890625,0,0,0.0087890625,61.1806640625,0)" xlink:href="#v"/><use transform="matrix(0.0087890625,0,0,0.0087890625,65.5400390625,0)" xlink:href="#w"/><use transform="matrix(0.0087890625,0,0,0.0087890625,69.8994140625,0)" xlink:href="#v"/><use transform="matrix(0.0087890625,0,0,0.0087890625,74.2587890625,0)" xlink:href="#y"/><use transform="matrix(0.0087890625,0,0,0.0087890625,80.4990234375,0)" xlink:href="#z"/></g><path d="M130 0v-134l666-991c45-67 96-135 147-202-269 9-546 3-821 5v-168h1036v136L502-379c-49 72-103 145-157 216 268-9 546-3 821-5V0H130" id="A"/><path d="M613 24c-304 0-509-231-509-576 0-350 205-580 509-580 305 0 511 230 511 580 0 345-206 576-511 576zm0-161c226 0 329-195 329-415 0-222-103-419-329-419-223 0-326 196-326 419 0 220 103 415 326 415" id="B"/><path d="M338-670V0H158v-1118h173l1 207c72-158 192-221 342-221 226 0 378 139 378 422V0H872v-695c0-172-96-275-252-275-161 0-282 109-282 300" id="C"/><path d="M628 24c-324 0-524-230-524-574 0-343 198-582 503-582 237 0 487 146 487 559v75H286c9 234 145 362 343 362 132 0 231-58 273-172l174 48C1024-91 857 24 628 24zM287-650h624c-17-190-120-322-304-322-192 0-309 151-320 322" id="D"/><g id="b"><use transform="matrix(0.0087890625,0,0,0.0087890625,0,0)" xlink:href="#A"/><use transform="matrix(0.0087890625,0,0,0.0087890625,11.3203125,0)" xlink:href="#B"/><use transform="matrix(0.0087890625,0,0,0.0087890625,22.11328125,0)" xlink:href="#C"/><use transform="matrix(0.0087890625,0,0,0.0087890625,32.748046875,0)" xlink:href="#D"/></g><use transform="matrix(0.0087890625,0,0,0.0087890625,0,0)" xlink:href="#s" id="c"/><path d="M458 0L52-1490h194c108 439 233 855 324 1313 92-459 221-873 331-1313h216c110 438 234 854 330 1307 92-455 216-869 323-1307h196L1558 0h-221l-256-944c-26-95-50-200-73-331-22 122-44 223-73 331L680 0H458" id="E"/><path d="M657 26c-323 0-524-166-541-416h195c15 169 171 246 346 246 202 0 356-106 356-265 5-203-294-238-475-293-239-73-380-191-380-389 0-252 224-419 512-419 294 0 499 171 508 396H992c-17-145-151-228-328-228-193 0-321 102-321 242 0 156 175 211 284 241l149 41c160 44 422 134 422 412 0 244-197 432-541 432" id="F"/><g id="d"><use transform="matrix(0.008173828125000001,0,0,0.008173828125000001,0,0)" xlink:href="#s"/><use transform="matrix(0.008173828125000001,0,0,0.008173828125000001,10.601455078125001,0)" xlink:href="#E"/><use transform="matrix(0.008173828125000001,0,0,0.008173828125000001,27.096240234375003,0)" xlink:href="#F"/></g><path d="M783 20c-382 0-661-292-661-764 0-473 279-766 661-766 302 0 548 182 601 489h-190c-42-204-217-313-411-313-268 0-476 208-476 590 0 381 209 588 476 588 195 0 369-110 411-313h190c-52 303-296 489-601 489" id="G"/><path d="M537 14c-226 0-379-139-379-422v-710h180v695c0 172 97 275 253 275 160 0 281-109 281-300v-670h181V0H879v-209C806-46 684 14 537 14" id="H"/><path d="M577 24c-279 0-473-224-473-580 0-354 195-576 474-576 218 0 287 134 324 193h14v-551h180V0H922v-173h-20C865-111 790 24 577 24zm27-161c203 0 314-172 314-421 0-247-108-413-314-413-212 0-317 181-317 413 0 235 108 421 317 421" id="I"/><g id="e"><use transform="matrix(0.008173828125000001,0,0,0.008173828125000001,0,0)" xlink:href="#G"/><use transform="matrix(0.008173828125000001,0,0,0.008173828125000001,12.228046875000002,0)" xlink:href="#w"/><use transform="matrix(0.008173828125000001,0,0,0.008173828125000001,16.282265625,0)" xlink:href="#B"/><use transform="matrix(0.008173828125000001,0,0,0.008173828125000001,26.3197265625,0)" xlink:href="#H"/><use transform="matrix(0.008173828125000001,0,0,0.008173828125000001,36.218232421875,0)" xlink:href="#I"/></g><path d="M600 0L52-1490h200c166 485 304 806 458 1336 156-533 285-846 449-1336h202L819 0H600" id="J"/><path d="M158 0v-1118h174v172h12c41-113 157-188 290-188 26 0 70 2 91 3v181c-11-2-60-10-108-10-161 0-279 109-279 260V0H158" id="K"/><g id="f"><use transform="matrix(0.008173828125000001,0,0,0.008173828125000001,0,0)" xlink:href="#J"/><use transform="matrix(0.008173828125000001,0,0,0.008173828125000001,11.549619140625001,0)" xlink:href="#v"/><use transform="matrix(0.008173828125000001,0,0,0.008173828125000001,15.603837890625002,0)" xlink:href="#K"/><use transform="matrix(0.008173828125000001,0,0,0.008173828125000001,22.167421875000002,0)" xlink:href="#y"/><use transform="matrix(0.008173828125000001,0,0,0.008173828125000001,27.643886718750004,0)" xlink:href="#H"/><use transform="matrix(0.008173828125000001,0,0,0.008173828125000001,37.542392578125,0)" xlink:href="#u"/><use transform="matrix(0.008173828125000001,0,0,0.008173828125000001,46.942294921875,0)" xlink:href="#w"/></g><path d="M158 418v-1536h174v179h20c37-59 106-193 324-193 279 0 474 222 474 576 0 356-194 580-473 580-213 0-288-135-325-197h-14v591H158zm492-555c209 0 317-186 317-421 0-232-105-413-317-413-206 0-314 166-314 413 0 249 111 421 314 421" id="L"/><g id="g"><use transform="matrix(0.008173828125000001,0,0,0.008173828125000001,0,0)" xlink:href="#L"/><use transform="matrix(0.008173828125000001,0,0,0.008173828125000001,10.249980468750001,0)" xlink:href="#K"/><use transform="matrix(0.008173828125000001,0,0,0.008173828125000001,16.813564453125004,0)" xlink:href="#v"/><use transform="matrix(0.008173828125000001,0,0,0.008173828125000001,20.867783203125004,0)" xlink:href="#t"/><use transform="matrix(0.008173828125000001,0,0,0.008173828125000001,30.194121093750006,0)" xlink:href="#u"/><use transform="matrix(0.008173828125000001,0,0,0.008173828125000001,39.594023437500006,0)" xlink:href="#y"/><use transform="matrix(0.008173828125000001,0,0,0.008173828125000001,44.907011718750006,0)" xlink:href="#D"/></g><path d="M613 24c-304 0-509-231-509-576 0-350 205-580 509-580 216 0 392 114 453 309l-173 49c-33-115-133-197-280-197-223 0-326 196-326 419 0 220 103 415 326 415 150 0 252-85 285-206l172 49C1010-95 832 24 613 24" id="M"/><g id="h"><use transform="matrix(0.008173828125000001,0,0,0.008173828125000001,0,0)" xlink:href="#M"/><use transform="matrix(0.008173828125000001,0,0,0.008173828125000001,9.563378906250001,0)" xlink:href="#w"/><use transform="matrix(0.008173828125000001,0,0,0.008173828125000001,13.617597656250002,0)" xlink:href="#B"/><use transform="matrix(0.008173828125000001,0,0,0.008173828125000001,23.655058593750002,0)" xlink:href="#H"/><use transform="matrix(0.008173828125000001,0,0,0.008173828125000001,33.553564453125006,0)" xlink:href="#I"/></g><path d="M218-607c0-325 108-727 258-974h175c-155 315-250 682-250 974 0 265 78 531 250 886H476C306-10 218-315 218-607" id="N"/><path d="M180 0v-1490h510c348 0 508 209 508 474 0 266-160 477-507 477H370V0H180zm190-706h312c236 0 327-133 327-310 0-176-91-307-329-307H370v617" id="O"/><path d="M96 279C273-86 346-350 346-607c0-292-95-659-250-974h175c150 246 258 650 258 974 0 297-91 602-258 886H96" id="P"/><g id="i"><use transform="matrix(0.008173828125000001,0,0,0.008173828125000001,0,0)" xlink:href="#N"/><use transform="matrix(0.008173828125000001,0,0,0.008173828125000001,6.105849609375,0)" xlink:href="#J"/><use transform="matrix(0.008173828125000001,0,0,0.008173828125000001,17.65546875,0)" xlink:href="#O"/><use transform="matrix(0.008173828125000001,0,0,0.008173828125000001,28.346835937500003,0)" xlink:href="#G"/><use transform="matrix(0.008173828125000001,0,0,0.008173828125000001,40.57488281250001,0)" xlink:href="#P"/></g><path d="M653-1490V0H466v-1314h-10L96-1047v-204l324-239h233" id="Q"/><path d="M200 0l662-1311v-12H98v-167h963v177L400 0H200" id="R"/><path d="M154 0v-137l495-537c165-179 249-281 249-418 0-156-121-253-280-253-170 0-278 110-278 278H158c0-264 200-443 465-443 266 0 455 183 455 416 0 161-73 288-336 568L416-179v12h687V0H154" id="S"/><path d="M295 13c-75 0-135-60-135-135s60-135 135-135 135 60 135 135S370 13 295 13" id="T"/><path d="M635 20c-292 0-500-160-510-396h192c11 142 145 229 315 229 187 0 323-105 323-260 0-161-125-274-346-274H488v-165h121c174 0 294-100 294-254 0-148-104-245-266-245-152 0-291 85-297 230H157c8-234 222-395 484-395 278 0 448 188 448 400 0 168-95 291-247 336v12c190 31 301 169 301 357 0 244-216 425-508 425" id="U"/><path d="M646 20c-332 0-524-278-524-764 0-483 194-766 524-766s524 283 524 766c0 485-191 764-524 764zm0-166c218 0 341-220 341-598 0-380-123-601-341-601s-341 222-341 601c0 378 123 598 341 598" id="V"/><path d="M692-1560L212 224H46l480-1784h166" id="W"/><path d="M646 20c-249 0-524-159-524-708 0-524 209-822 547-822 250 0 431 161 467 395H950c-33-129-126-227-281-227-229 0-367 208-367 566h12c80-124 212-198 367-198 255 0 467 205 467 493 0 278-198 501-502 501zm0-167c179 0 318-148 318-334 0-182-133-328-313-328-181 0-322 156-322 330 0 176 134 332 317 332" id="X"/><g id="j"><use transform="matrix(0.007063802083333334,0,0,0.007063802083333334,0,0)" xlink:href="#Q"/><use transform="matrix(0.007063802083333334,0,0,0.007063802083333334,5.884147135416668,0)" xlink:href="#R"/><use transform="matrix(0.007063802083333334,0,0,0.007063802083333334,14.071093750000003,0)" xlink:href="#S"/><use transform="matrix(0.007063802083333334,0,0,0.007063802083333334,22.893782552083337,0)" xlink:href="#T"/><use transform="matrix(0.007063802083333334,0,0,0.007063802083333334,26.672916666666673,0)" xlink:href="#U"/><use transform="matrix(0.007063802083333334,0,0,0.007063802083333334,35.60862630208334,0)" xlink:href="#Q"/><use transform="matrix(0.007063802083333334,0,0,0.007063802083333334,41.492773437500006,0)" xlink:href="#T"/><use transform="matrix(0.007063802083333334,0,0,0.007063802083333334,45.29309895833334,0)" xlink:href="#V"/><use transform="matrix(0.007063802083333334,0,0,0.007063802083333334,54.052213541666674,0)" xlink:href="#T"/><use transform="matrix(0.007063802083333334,0,0,0.007063802083333334,57.85253906250001,0)" xlink:href="#V"/><use transform="matrix(0.007063802083333334,0,0,0.007063802083333334,66.97897135416667,0)" xlink:href="#W"/><use transform="matrix(0.007063802083333334,0,0,0.007063802083333334,72.19205729166667,0)" xlink:href="#Q"/><use transform="matrix(0.007063802083333334,0,0,0.007063802083333334,78.07620442708334,0)" xlink:href="#X"/></g><g id="k"><use transform="matrix(0.008173828125000001,0,0,0.008173828125000001,0,0)" xlink:href="#O"/><use transform="matrix(0.008173828125000001,0,0,0.008173828125000001,10.691367187500001,0)" xlink:href="#H"/><use transform="matrix(0.008173828125000001,0,0,0.008173828125000001,20.589873046875002,0)" xlink:href="#x"/><use transform="matrix(0.008173828125000001,0,0,0.008173828125000001,30.839853515625002,0)" xlink:href="#w"/><use transform="matrix(0.008173828125000001,0,0,0.008173828125000001,34.894072265625,0)" xlink:href="#v"/><use transform="matrix(0.008173828125000001,0,0,0.008173828125000001,38.948291015625,0)" xlink:href="#M"/></g><path d="M538 24C308 24 148-78 108-271l171-41c32 123 123 178 257 178 156 0 256-77 256-169 0-77-54-128-164-154l-186-44c-203-48-300-148-300-305 0-192 176-326 414-326 230 0 351 112 402 269l-163 42c-31-80-94-158-238-158-133 0-233 69-233 162 0 83 57 129 188 160l169 40c203 48 298 149 298 302 0 196-179 339-441 339" id="Y"/><g id="l"><use transform="matrix(0.008173828125000001,0,0,0.008173828125000001,0,0)" xlink:href="#Y"/><use transform="matrix(0.008173828125000001,0,0,0.008173828125000001,8.835908203125001,0)" xlink:href="#H"/><use transform="matrix(0.008173828125000001,0,0,0.008173828125000001,18.7344140625,0)" xlink:href="#x"/><use transform="matrix(0.008173828125000001,0,0,0.008173828125000001,28.984394531250004,0)" xlink:href="#C"/><use transform="matrix(0.008173828125000001,0,0,0.008173828125000001,38.8747265625,0)" xlink:href="#D"/><use transform="matrix(0.008173828125000001,0,0,0.008173828125000001,48.63427734375,0)" xlink:href="#y"/></g><use transform="matrix(0.008173828125000001,0,0,0.008173828125000001,0,0)" xlink:href="#Q" id="m"/><path d="M180 0v-1490h510c348 0 508 194 508 460 0 198-88 351-276 417L1256 0h-220L726-579c-117 2-238 0-356 1V0H180zm190-747h312c235 0 327-108 327-283 0-177-92-293-329-293H370v576" id="Z"/><path d="M611 442c-248 0-391-105-460-228l146-94c47 65 117 165 314 165 178 0 307-82 307-266v-224h-17C863-141 792-18 576-18c-268 0-472-195-472-546 0-346 197-568 476-568 216 0 288 133 326 193h17v-179h175V29c0 289-215 413-487 413zm-5-620c203 0 314-146 314-390 0-237-108-403-314-403-213 0-319 180-319 403 0 230 109 390 319 390" id="aa"/><g id="n"><use transform="matrix(0.010850694444444444,0,0,0.010850694444444444,0,0)" xlink:href="#Z"/><use transform="matrix(0.010850694444444444,0,0,0.010850694444444444,13.975694444444445,0)" xlink:href="#D"/><use transform="matrix(0.010850694444444444,0,0,0.010850694444444444,26.931423611111104,0)" xlink:href="#aa"/><use transform="matrix(0.010850694444444444,0,0,0.010850694444444444,40.55989583333333,0)" xlink:href="#v"/><use transform="matrix(0.010850694444444444,0,0,0.010850694444444444,45.94184027777778,0)" xlink:href="#B"/><use transform="matrix(0.010850694444444444,0,0,0.010850694444444444,59.26649305555555,0)" xlink:href="#C"/></g><path d="M370-1490V0H180v-1490h190" id="ab"/><g id="o"><use transform="matrix(0.008173828125000001,0,0,0.008173828125000001,0,0)" xlink:href="#ab"/><use transform="matrix(0.008173828125000001,0,0,0.008173828125000001,4.495605468750001,0)" xlink:href="#C"/><use transform="matrix(0.008173828125000001,0,0,0.008173828125000001,14.3859375,0)" xlink:href="#y"/><use transform="matrix(0.008173828125000001,0,0,0.008173828125000001,19.69892578125,0)" xlink:href="#D"/><use transform="matrix(0.008173828125000001,0,0,0.008173828125000001,29.458476562500003,0)" xlink:href="#K"/><use transform="matrix(0.008173828125000001,0,0,0.008173828125000001,36.022060546875004,0)" xlink:href="#C"/><use transform="matrix(0.008173828125000001,0,0,0.008173828125000001,45.91239257812501,0)" xlink:href="#D"/><use transform="matrix(0.008173828125000001,0,0,0.008173828125000001,55.67194335937501,0)" xlink:href="#y"/></g><path d="M409 0L70-1118h191c89 329 165 560 243 925 75-353 154-601 240-925h192c85 325 161 564 235 922 77-354 157-598 244-922h191L1267 0h-179c-86-307-176-590-250-913C763-588 675-308 588 0H409" id="ac"/><g id="p"><use transform="matrix(0.008173828125000001,0,0,0.008173828125000001,0,0)" xlink:href="#aa"/><use transform="matrix(0.008173828125000001,0,0,0.008173828125000001,10.266328125000001,0)" xlink:href="#u"/><use transform="matrix(0.008173828125000001,0,0,0.008173828125000001,19.66623046875,0)" xlink:href="#y"/><use transform="matrix(0.008173828125000001,0,0,0.008173828125000001,24.979218750000005,0)" xlink:href="#D"/><use transform="matrix(0.008173828125000001,0,0,0.008173828125000001,34.436337890625005,0)" xlink:href="#ac"/><use transform="matrix(0.008173828125000001,0,0,0.008173828125000001,48.13567382812501,0)" xlink:href="#u"/><use transform="matrix(0.008173828125000001,0,0,0.008173828125000001,57.29036132812501,0)" xlink:href="#z"/></g><path d="M158 0v-1118h175l1 205c55-151 181-225 313-225 147 0 245 90 285 228 53-141 190-228 352-228 194 0 352 125 352 384V0h-181v-749c0-161-105-225-225-225-151 0-243 103-243 244V0H807v-767c0-124-93-207-219-207-131 0-250 92-250 270V0H158" id="ad"/><path d="M126 0v-134l627-806v-11H146v-167h839v143L376-178v11h629V0H126" id="ae"/><g id="q"><use transform="matrix(0.010850694444444444,0,0,0.010850694444444444,0,0)" xlink:href="#s"/><use transform="matrix(0.010850694444444444,0,0,0.010850694444444444,15.33203125,0)" xlink:href="#ad"/><use transform="matrix(0.010850694444444444,0,0,0.010850694444444444,34.79817708333333,0)" xlink:href="#u"/><use transform="matrix(0.010850694444444444,0,0,0.010850694444444444,47.27647569444444,0)" xlink:href="#ae"/><use transform="matrix(0.010850694444444444,0,0,0.010850694444444444,59.22309027777778,0)" xlink:href="#B"/><use transform="matrix(0.010850694444444444,0,0,0.010850694444444444,72.54774305555554,0)" xlink:href="#C"/></g><path d="M180 0v-1490h908v168H370v486h669v168H370v500h727V0H180" id="af"/><g id="r"><use transform="matrix(0.010850694444444444,0,0,0.010850694444444444,0,0)" xlink:href="#af"/><use transform="matrix(0.010850694444444444,0,0,0.010850694444444444,13.35720486111111,0)" xlink:href="#G"/><use transform="matrix(0.010850694444444444,0,0,0.010850694444444444,29.58984375,0)" xlink:href="#S"/></g></defs></g></svg>