<svg xmlns="http://www.w3.org/2000/svg" xmlns:xlink="http://www.w3.org/1999/xlink" xmlns:lucid="lucid" width="1003.67" height="1034.56"><g transform="translate(-737.8333333333333 -245.3889068817599)" lucid:page-tab-id=".Jrx1AHwqzoi"><path d="M500 0h1500v1500H500z" fill="#fff"/><path d="M839.82 856.4a8 8 0 0 1 8-8H1612a8 8 0 0 1 8 8v283.9a8 8 0 0 1-8 8H847.82a8 8 0 0 1-8-8z" fill="#fff" fill-opacity="0"/><path d="M865.73 848.4h11.94m11.95 0h11.93m11.95 0h11.93m11.95 0h11.94m11.94 0h11.94m11.94 0h11.94m11.94 0h11.94m11.94 0h11.94m11.94 0h11.94m11.94 0h11.94m11.94 0h11.94m11.94 0h11.94m11.94 0h11.94m11.94 0h11.94m11.94 0H1212m11.94 0h11.94m11.94 0h11.94m11.94 0h11.94m11.94 0h11.94m11.94 0h11.94m11.94 0h11.95m11.92 0h11.94m11.94 0h11.95m11.94 0h11.93m11.94 0h11.94m11.95 0h11.94m11.93 0h11.94m11.94 0h11.95m11.94 0h11.93m11.94 0h11.94m11.95 0h11.94m11.93 0h5.97a8 8 0 0 1 8 8v5.9m0 11.84v11.83m0 11.83v11.83m0 11.83v11.82m0 11.83v11.84m0 11.83v11.83m0 11.83v11.83m0 11.83v11.82m0 11.83v11.83m0 11.83v11.83m0 11.83v11.83m0 11.82v11.83m0 11.83v5.9a8 8 0 0 1-8 8.02h-5.97m-11.94 0h-11.95m-11.94 0h-11.93m-11.94 0h-11.94m-11.95 0h-11.94m-11.93 0h-11.94m-11.94 0h-11.95m-11.94 0h-11.93m-11.94 0H1415m-11.95 0h-11.94m-11.93 0h-11.95m-11.93 0h-11.96m-11.94 0h-11.94m-11.94 0h-11.94m-11.94 0h-11.94m-11.94 0h-11.94m-11.94 0h-11.94m-11.94 0h-11.94m-11.94 0h-11.94m-11.94 0h-11.94m-11.94 0h-11.94m-11.94 0h-11.94m-11.94 0h-11.94m-11.94 0h-11.94m-11.94 0h-11.94m-11.94 0h-11.94m-11.94 0h-11.94m-11.94 0h-11.94m-11.94 0h-11.94m-11.95 0H913.5m-11.95 0h-11.93m-11.95 0h-11.94m-11.94 0h-5.98a8 8 0 0 1-8-8v-5.92m0-11.83v-11.83m0-11.83v-11.84m0-11.83v-11.83m0-11.82v-11.83m0-11.83v-11.83m0-11.84v-11.83m0-11.83v-11.83m0-11.83V945.1m0-11.82v-11.82m0-11.83V897.8m0-11.83v-11.83m0-11.83v-5.9a8 8 0 0 1 8-8h5.97" stroke="#00a4a6" stroke-width="3" fill="none"/><use xlink:href="#a" transform="matrix(1,0,0,1,839.8237379922394,868.3942258077799) translate(312.6201171875 17.4375)"/><use xlink:href="#b" transform="matrix(1,0,0,1,839.8237379922394,868.3942258077799) translate(408.2978515625 17.4375)"/><use xlink:href="#c" transform="matrix(1,0,0,1,839.8237379922394,868.3942258077799) translate(456.6025390625 17.4375)"/><path d="M839.82 456.4a8 8 0 0 1 8-8H1612a8 8 0 0 1 8 8v283.9a8 8 0 0 1-8 8H847.82a8 8 0 0 1-8-8z" fill="#fff" fill-opacity="0"/><path d="M865.73 448.4h11.94m11.95 0h11.93m11.95 0h11.93m11.95 0h11.94m11.94 0h11.94m11.94 0h11.94m11.94 0h11.94m11.94 0h11.94m11.94 0h11.94m11.94 0h11.94m11.94 0h11.94m11.94 0h11.94m11.94 0h11.94m11.94 0h11.94m11.94 0H1212m11.94 0h11.94m11.94 0h11.94m11.94 0h11.94m11.94 0h11.94m11.94 0h11.94m11.94 0h11.95m11.92 0h11.94m11.94 0h11.95m11.94 0h11.93m11.94 0h11.94m11.95 0h11.94m11.93 0h11.94m11.94 0h11.95m11.94 0h11.93m11.94 0h11.94m11.95 0h11.94m11.93 0h5.97a8 8 0 0 1 8 8v5.9m0 11.84v11.83m0 11.83v11.83m0 11.83v11.82m0 11.83v11.84m0 11.83v11.83m0 11.83v11.83m0 11.83v11.82m0 11.83v11.83m0 11.82v11.84m0 11.82v11.83m0 11.82v11.83m0 11.83v5.9a8 8 0 0 1-8 8h-5.97m-11.94 0h-11.95m-11.94 0h-11.93m-11.94 0h-11.94m-11.95 0h-11.94m-11.93 0h-11.94m-11.94 0h-11.95m-11.94 0h-11.93m-11.94 0H1415m-11.95 0h-11.94m-11.93 0h-11.95m-11.93 0h-11.96m-11.94 0h-11.94m-11.94 0h-11.94m-11.94 0h-11.94m-11.94 0h-11.94m-11.94 0h-11.94m-11.94 0h-11.94m-11.94 0h-11.94m-11.94 0h-11.94m-11.94 0h-11.94m-11.94 0h-11.94m-11.94 0h-11.94m-11.94 0h-11.94m-11.94 0h-11.94m-11.94 0h-11.94m-11.94 0h-11.94m-11.94 0h-11.94m-11.94 0h-11.94m-11.95 0H913.5m-11.95 0h-11.93m-11.95 0h-11.94m-11.94 0h-5.98a8 8 0 0 1-8-8v-5.9m0-11.83v-11.83m0-11.83v-11.84m0-11.82V663.4m0-11.82v-11.83m0-11.83V616.1m0-11.84v-11.83m0-11.83v-11.83m0-11.83V545.1m0-11.82v-11.82m0-11.83V497.8m0-11.83v-11.83m0-11.83v-5.9a8 8 0 0 1 8-8h5.97" stroke="#00a4a6" stroke-width="3" fill="none"/><use xlink:href="#a" transform="matrix(1,0,0,1,839.8237379922841,468.39422580774044) translate(312.29931640625 17.4375)"/><use xlink:href="#b" transform="matrix(1,0,0,1,839.8237379922841,468.39422580774044) translate(407.97705078125 17.4375)"/><use xlink:href="#d" transform="matrix(1,0,0,1,839.8237379922841,468.39422580774044) translate(456.28173828125 17.4375)"/><path d="M739.33 254.9a8 8 0 0 1 8-8H1732a8 8 0 0 1 8 8v1015.54a8 8 0 0 1-8 8H747.33a8 8 0 0 1-8-8z" stroke="#242f3e" stroke-width="3" fill="#fff" fill-opacity="0"/><path d="M739.33 246.9h56v56h-56v-56z" stroke="#fff" stroke-opacity="0" fill="#242f3e"/><path d="M757.56 272.76c-.04.48.04.87.16 1.34.13.38.3.7.5 1.06.03.1.08.2.08.34 0 .2-.13.35-.3.45l-.93.62c-.13.08-.25.13-.38.13-.17 0-.33-.07-.46-.2-.2-.23-.37-.44-.53-.7-.16-.26-.28-.54-.44-.88-1.1 1.38-2.63 2.1-4.4 2.07-1.15.05-2.13-.32-2.95-1.1-.77-.78-1.14-1.75-1.1-2.84-.04-1.23.4-2.28 1.35-3.08 1.07-.85 2.3-1.23 3.66-1.16.58 0 1.04.03 1.6.12.6.08 1.12.2 1.74.32v-1.1c.08-.88-.17-1.67-.7-2.37-.74-.57-1.56-.8-2.47-.7-.53 0-1.02.06-1.6.18-.57.14-1.02.3-1.6.52l-.5.2h-.24c-.2 0-.33-.17-.33-.46v-.75c0-.2.04-.35.13-.5.12-.17.24-.27.4-.34.66-.3 1.2-.5 1.9-.67.77-.2 1.47-.3 2.3-.3 1.47-.12 2.8.27 3.9 1.2.94 1.06 1.35 2.3 1.23 3.68zm-6.08 2.28c.57 0 1.07-.1 1.6-.28.58-.2 1.03-.5 1.44-.96.25-.28.4-.58.5-.94.12-.45.16-.85.16-1.3v-.67c-.54-.1-.95-.18-1.44-.22h-1.4c-.82-.07-1.56.13-2.22.6-.53.44-.77 1.03-.73 1.72-.05.6.1 1.15.52 1.6.45.37 1 .5 1.56.44zm12 1.6c-.22 0-.42-.03-.58-.15-.17-.18-.25-.37-.33-.6l-3.5-11.52-.12-.62c0-.23.13-.36.37-.36h1.48c.2 0 .37.03.58.14.16.18.24.36.28.6l2.5 9.96 2.4-9.94c0-.24.07-.44.28-.6.16-.12.37-.16.57-.15h1.2c.25 0 .4.04.62.15.16.2.25.37.3.6l2.33 9.95 2.54-10c.03-.22.16-.42.32-.6.17-.1.37-.16.58-.13h1.4c.16 0 .32.1.36.3v.31s0 .2-.12.36l-3.6 11.53c-.06.22-.14.42-.3.6-.2.1-.37.14-.58.13h-1.27c-.26.02-.46-.03-.63-.16-.16-.17-.24-.36-.28-.6l-2.3-9.6-2.3 9.6c-.05.24-.13.43-.3.6-.2.13-.4.2-.62.16zm19.2.38c-.8 0-1.5-.07-2.3-.25-.65-.13-1.14-.3-1.72-.6-.2-.1-.37-.23-.45-.42-.07-.14-.1-.28-.1-.43v-.75c0-.3.1-.46.32-.46h.3l.35.16c.58.24 1.03.4 1.6.5.62.15 1.16.2 1.8.2.8.06 1.5-.1 2.2-.48.48-.3.77-.82.73-1.4.04-.42-.13-.77-.37-1.05-.45-.4-.95-.65-1.52-.8l-2.17-.68c-.94-.25-1.72-.73-2.38-1.5-.5-.65-.74-1.35-.74-2.18 0-.6.13-1.08.42-1.6.3-.5.62-.9 1.07-1.22.48-.38.98-.6 1.6-.78.65-.18 1.18-.26 1.88-.25.33-.03.62-.03 1 0l.97.16.82.23.66.27c.16.1.3.22.45.38.08.15.13.3.13.5v.7c0 .3-.12.47-.37.47-.2-.03-.36-.1-.57-.18-.94-.43-1.8-.6-2.87-.58-.7-.04-1.33.08-2 .4-.48.3-.72.8-.68 1.36 0 .4.12.75.45 1.05.5.4.98.65 1.6.82l2.1.66c.94.24 1.68.7 2.3 1.43.5.63.7 1.3.7 2.1 0 .62-.13 1.15-.38 1.72-.3.55-.62.95-1.12 1.32-.5.4-.98.66-1.6.84-.74.24-1.4.34-2.13.35zM785.44 284.37c-5.6 3.82-11.37 5.58-18.16 5.56-8.54.05-15.82-2.74-22.16-8.45-.5-.4 0-1 .5-.67 7.07 4.06 14.02 5.9 22.2 5.9 6.1-.03 11.28-1.08 16.92-3.46.82-.35 1.52.54.7 1.13z" stroke="#fff" stroke-opacity="0" fill="#fff"/><path d="M787.5 282.08c-.65-.8-4.17-.38-5.75-.2-.48 0-.55-.35-.1-.66 2.78-1.97 7.4-1.4 7.98-.73.6.66-.14 5.27-2.78 7.47-.4.34-.78.15-.6-.28.54-1.53 1.87-4.84 1.25-5.62z" stroke="#fff" stroke-opacity="0" fill="#fff"/><use xlink:href="#e" transform="matrix(1,0,0,1,810.3333333333333,266.8889068817599) translate(0 16.216875)"/><use xlink:href="#f" transform="matrix(1,0,0,1,810.3333333333333,266.8889068817599) translate(42.544775390625006 16.216875)"/><path d="M878.96 386.44a8 8 0 0 1 8-8H1552a8 8 0 0 1 8 8v797a8 8 0 0 1-8 8H886.96a8 8 0 0 1-8-8z" stroke="#8c4fff" stroke-width="3" fill="#fff" fill-opacity="0"/><path d="M878.96 378.44h56v56h-56v-56z" stroke="#000" stroke-opacity="0" fill="#8c4fff"/><path d="M922.33 407.9l-4.12-1.77v14.68c3.58-.47 4.13-4.15 4.13-4.3v-8.6zm-5.53 12.94v-14.7l-4.23 1.75v8.67c0 .08.63 3.87 4.23 4.27zm.43-16.44c.2-.08.4-.08.55.03l5.53 2.36c.28.1.44.36.44.6v9.17c-.24 2.03-1.88 5.7-6.35 5.7-4.32 0-5.97-3.67-6.24-5.58v-9.3c0-.24.2-.5.43-.6l5.63-2.4zm7.92.92l-7.64-3.4-7.75 3.3v9.96c0 .07-.04 4 2.35 6.47 1.25 1.33 3.05 2 5.3 2 2.26 0 4.03-.67 5.36-2 2.43-2.46 2.4-6.44 2.4-6.47v-9.86zm-1.4 17.3c-1.58 1.6-3.7 2.42-6.36 2.42-2.64 0-4.75-.8-6.32-2.43-2.83-2.86-2.7-7.28-2.7-7.46v-10.4c0-.3.15-.56.42-.64l8.43-3.57c.2-.07.4-.07.55 0l8.35 3.68c.27.12.43.38.43.64v10.34c0 .18.04 4.56-2.82 7.43zm-29.4-10.24h11.2v1.4h-11.2c-3.93 0-6.75-2.83-7-7.03v-.5c0-3.55 1.85-5.94 5.34-7 0-.3-.05-.67-.05-.9 0-4.07 2.24-7.64 5.65-9.04 4.62-1.87 9.84-1.24 12.74 1.56 1.06 1.03 1.88 2.17 2.47 3.5.87-.63 1.97-.93 3.3-.85 2.5.12 4.43 2.4 4.82 5.6 2.08.18 3.5 1.25 4.2 3.24l-1.3.47c-.6-1.6-1.68-2.34-3.56-2.34-.36 0-.67-.26-.67-.66-.2-3.24-2-4.82-3.58-4.9-1.33-.07-2.3.3-2.9 1.1-.16.2-.4.3-.67.26-.23-.03-.47-.22-.54-.44-.58-1.54-1.4-2.83-2.54-3.93-2.5-2.44-7.14-2.96-11.25-1.26-2.85 1.17-4.73 4.2-4.73 7.72 0 .37.03.96.07 1.33.04.36-.15.7-.5.76-3.22.8-4.87 2.72-4.87 5.78v.4c.2 3.5 2.4 5.74 5.57 5.74z" stroke="#000" stroke-opacity="0" fill="#fff"/><use xlink:href="#g" transform="matrix(1,0,0,1,949.9618194915075,398.4444264515731) translate(0 16.216875)"/><use xlink:href="#h" transform="matrix(1,0,0,1,949.9618194915075,398.4444264515731) translate(55.70463867187501 16.216875)"/><use xlink:href="#i" transform="matrix(1,0,0,1,949.9618194915075,398.4444264515731) translate(115.07932617187501 16.216875)"/><use xlink:href="#j" transform="matrix(1,0,0,1,949.9618194915075,398.4444264515731) translate(163.59099609375002 16.216875)"/><path d="M799.33 326.23a6 6 0 0 1 6-6H1654a6 6 0 0 1 6 6v886.2a6 6 0 0 1-6 6H805.33a6 6 0 0 1-6-6z" fill="#fff" fill-opacity="0"/><path d="M823.52 320.23h12.12m12.13 0h12.12m12.1 0h12.14m12.12 0h12.13m12.1 0h12.13m12.13 0h12.12m12.13 0h12.13m12.12 0h12.13m12.12 0h12.12m12.13 0h12.12m12.13 0h12.12m12.12 0h12.13m12.12 0h12.1m12.14 0h12.12m12.13 0h12.1m12.13 0h12.13m12.12 0h12.13m12.13 0h12.12m12.13 0h12.12m12.12 0h12.13m12.12 0h12.13m12.12 0h12.12m12.13 0h12.12m12.1 0h12.14m12.12 0h12.13m12.1 0h12.13m12.13 0h12.12m12.13 0h12.13m12.12 0h12.13m12.12 0h12.12m12.13 0h12.12m12.13 0h12.12m12.12 0h12.13m12.12 0h12.1m12.14 0h6.06a6 6 0 0 1 6 6v6m0 11.97v11.97m0 11.98v11.97m0 11.98v11.97m0 11.98v11.98m0 11.97v11.98m0 11.97v11.98m0 11.98v11.98m0 11.98v11.97m0 11.98v12m0 11.96v11.98m0 11.97v12m0 11.96v11.98m0 11.98v11.97m0 11.97v11.97m0 11.98v11.98m0 11.97v11.98m0 11.97v11.98m0 11.97v11.98m0 11.98v11.97m0 11.98v11.97m0 11.98v11.98m0 11.98v11.98m0 11.97v11.98m0 12v11.96m0 11.98V931m0 12v11.96m0 11.98v11.97m0 12v11.97m0 11.97v11.98m0 11.98v11.97m0 11.98v11.97m0 11.98v11.97m0 11.98v11.98m0 11.97v11.98m0 11.97v11.98m0 11.98v11.98m0 11.98v5.98a6 6 0 0 1-6 6h-6.06m-12.13 0h-12.1m-12.13 0h-12.13m-12.12 0h-12.13m-12.13 0h-12.12m-12.13 0h-12.12m-12.12 0h-12.13m-12.12 0h-12.13m-12.12 0h-12.12m-12.13 0h-12.12m-12.1 0h-12.14m-12.12 0h-12.13m-12.1 0h-12.13m-12.13 0h-12.12m-12.13 0h-12.13m-12.12 0h-12.13m-12.12 0h-12.12m-12.13 0h-12.12m-12.13 0h-12.12m-12.12 0h-12.13m-12.12 0H1163m-12.14 0h-12.12m-12.13 0h-12.1m-12.13 0h-12.13m-12.12 0H1066m-12.13 0h-12.12m-12.13 0h-12.12m-12.12 0h-12.13m-12.12 0H969m-12.12 0h-12.12m-12.13 0H920.5m-12.1 0h-12.14m-12.12 0H872m-12.1 0h-12.13m-12.13 0h-12.12m-12.13 0h-6.07a6 6 0 0 1-6-6v-5.98m0-11.98v-11.97m0-11.97v-11.98m0-11.97v-11.98m0-11.97v-11.98m0-11.98v-11.97m0-11.98v-11.97m0-11.98v-11.97m0-11.98v-11.98m0-11.97V990.9m0-12v-11.96m0-11.98V943m0-12v-11.96m0-11.98V895.1m0-12v-11.97m0-11.97v-11.98m0-11.97v-11.97m0-11.98v-11.97m0-11.98v-11.97m0-11.98v-11.98m0-11.97v-11.98m0-11.97v-11.98m0-11.98V679.5m0-11.98v-11.97m0-11.98V631.6m0-11.98v-11.98m0-11.97v-12m0-11.96v-11.98m0-11.98V535.8m0-11.97v-11.97m0-11.98V487.9m0-11.97v-11.98m0-11.97V440m0-11.97v-11.98m0-11.98V392.1m0-11.98v-11.97m0-11.98V344.2m0-11.98v-6a6 6 0 0 1 6-6h6.06" stroke="#00a4a6" stroke-width="3" fill="none"/><path d="M799.33 320.23h56v56h-56v-56z" stroke="#fff" stroke-opacity="0" fill="#00a4a6"/><path d="M843.17 349.6l-5.95-7.37 5.95-7.4H817v-2.08c1-.32 1.62-1.15 1.62-2.2-.1-1.15-1-2.02-2.15-2.14-1.3-.07-2.44.9-2.54 2.16 0 1.04.64 1.87 1.6 2.2v33.88h-4.04v1.6h9.43v-1.6H817V349.6zm-26.96-19.76c.42-.04.77.32.77.72 0 .44-.3.76-.73.76-.4.04-.75-.32-.75-.72v-.04c0-.4.3-.72.7-.72zm23.62 6.6l-4.66 5.8 4.66 5.72h-22.8v-11.5z" stroke="#fff" stroke-opacity="0" fill="#fff"/><use xlink:href="#k" transform="matrix(1,0,0,1,870.3333333333333,340.23195969342044) translate(0 21.52777777777778)"/><path d="M900 546.35a8 8 0 0 1 8-8h204a8 8 0 0 1 8 8v104a8 8 0 0 1-8 8H908a8 8 0 0 1-8-8z" stroke="#7aa116" stroke-width="3" fill="#fff" fill-opacity="0"/><path d="M900 538.35h56v56h-56v-56z" stroke="#fff" stroke-opacity="0" fill="#7aa116"/><path d="M943.38 560.52c-.15-.17-.34-.25-.56-.25h-5.15v-5.57c-.03-2.54-.96-4.7-2.84-6.4-1.9-1.84-4.15-2.76-6.77-2.76-2.65 0-4.9.84-6.8 2.63-1.9 1.7-2.87 3.86-2.9 6.4v5.66h-5.15c-.24 0-.43.08-.58.25-.16.16-.22.33-.22.58v25.3c0 .4.34.78.8.78h29.6c.46 0 .8-.37.8-.8v-25.28c0-.2-.06-.37-.22-.54zm-23.46-5.9c.03-2.13.8-3.88 2.37-5.3 1.6-1.5 3.52-2.2 5.73-2.2 2.22 0 4.12.75 5.7 2.25 1.54 1.42 2.32 3.2 2.32 5.33v5.57H919.9zm22.1 30.94h-28.03v-23.7h28z" stroke="#fff" stroke-opacity="0" fill="#fff"/><path d="M927.2 575.65v6.25h1.6v-6.23c2.13-.4 3.62-2.2 3.63-4.35 0-2.44-1.97-4.42-4.4-4.43-2.2-.04-4.06 1.5-4.44 3.67-.42 2.4 1.2 4.68 3.6 5.08zm.82-7.16c.78 0 1.44.26 2 .82.54.55.82 1.2.8 2 .03 1.54-1.2 2.8-2.74 2.82h-.06c-1.56.12-2.92-1.05-3.04-2.6-.12-1.57 1.05-2.94 2.6-3.05.16-.02.28-.02.44 0z" stroke="#fff" stroke-opacity="0" fill="#fff"/><use xlink:href="#l" transform="matrix(1,0,0,1,971,558.3447566516412) translate(0 16.216875)"/><use xlink:href="#m" transform="matrix(1,0,0,1,971,558.3447566516412) translate(53.21979492187501 16.216875)"/><use xlink:href="#n" transform="matrix(1,0,0,1,971,558.3447566516412) translate(112.03866210937501 16.216875)"/><path d="M1200 544.35a6 6 0 0 1 6-6h227.33a6 6 0 0 1 6 6v108a6 6 0 0 1-6 6H1206a6 6 0 0 1-6-6z" stroke="#00a4a6" stroke-width="3" fill="#fff" fill-opacity="0"/><path d="M1200 538.35h56v56h-56v-56z" stroke="#fff" stroke-opacity="0" fill="#00a4a6"/><path d="M1243.38 560.52c-.15-.17-.34-.25-.56-.25h-5.15v-5.57c-.03-2.54-.97-4.7-2.84-6.4-1.9-1.84-4.15-2.76-6.77-2.76-2.65 0-4.9.84-6.8 2.63-1.9 1.7-2.87 3.86-2.9 6.4v5.66h-5.15c-.24 0-.43.08-.58.25-.16.16-.22.33-.22.58v25.3c0 .4.34.78.8.78h29.6c.46 0 .8-.37.8-.8v-25.28c0-.2-.06-.37-.22-.54zm-23.46-5.9c.03-2.13.8-3.88 2.37-5.3 1.6-1.5 3.52-2.2 5.73-2.2 2.22 0 4.12.75 5.7 2.25 1.54 1.42 2.32 3.2 2.32 5.33v5.57h-16.16zm22.1 30.94h-28.03v-23.7h28z" stroke="#fff" stroke-opacity="0" fill="#fff"/><path d="M1227.2 575.65v6.25h1.6v-6.23c2.13-.4 3.62-2.2 3.63-4.35 0-2.44-1.97-4.42-4.4-4.43-2.2-.04-4.07 1.5-4.44 3.67-.42 2.4 1.2 4.68 3.6 5.08zm.82-7.16c.78 0 1.44.26 2 .82.54.55.82 1.2.8 2 .03 1.54-1.2 2.8-2.74 2.82h-.06c-1.56.12-2.92-1.05-3.04-2.6-.12-1.57 1.05-2.94 2.6-3.05.16-.02.3-.02.44 0z" stroke="#fff" stroke-opacity="0" fill="#fff"/><use xlink:href="#o" transform="matrix(1,0,0,1,1271,558.3447566516412) translate(0 21.52777777777778)"/><use xlink:href="#p" transform="matrix(1,0,0,1,1271,558.3447566516412) translate(79.40538194444444 21.52777777777778)"/><use xlink:href="#q" transform="matrix(1,0,0,1,1271,558.3447566516412) translate(157.48697916666666 21.52777777777778)"/><path d="M910.62 968a8 8 0 0 1 8-8h204a8 8 0 0 1 8 8v104a8 8 0 0 1-8 8h-204a8 8 0 0 1-8-8z" stroke="#7aa116" stroke-width="3" fill="#fff" fill-opacity="0"/><path d="M910.62 960h56v56h-56v-56z" stroke="#fff" stroke-opacity="0" fill="#7aa116"/><path d="M954 982.18c-.15-.17-.34-.25-.56-.25h-5.15v-5.58c-.04-2.54-.97-4.7-2.84-6.4-1.9-1.84-4.16-2.75-6.78-2.75-2.65 0-4.9.83-6.8 2.62-1.9 1.7-2.87 3.87-2.9 6.4v5.66h-5.15c-.25 0-.43.1-.6.25-.15.17-.2.34-.2.6V1008c0 .43.34.8.8.8h29.58c.48 0 .82-.37.82-.8v-25.28c0-.2-.06-.38-.22-.54zm-23.46-5.9c.03-2.13.8-3.88 2.37-5.3 1.63-1.5 3.54-2.2 5.75-2.2 2.22 0 4.12.75 5.7 2.25 1.54 1.4 2.32 3.2 2.32 5.32v5.58H930.5zm22.1 30.94H924.6v-23.7h28.03z" stroke="#fff" stroke-opacity="0" fill="#fff"/><path d="M937.82 997.3v6.25h1.6v-6.23c2.13-.4 3.63-2.2 3.63-4.35 0-2.43-1.97-4.4-4.4-4.43-2.2-.03-4.06 1.5-4.44 3.68-.4 2.4 1.2 4.68 3.62 5.1zm.82-7.15c.78 0 1.44.27 2 .83.54.55.82 1.2.8 2 .03 1.54-1.2 2.8-2.74 2.8h-.06c-1.56.13-2.92-1.04-3.04-2.6-.1-1.56 1.05-2.93 2.6-3.03.16-.02.3-.02.44 0z" stroke="#fff" stroke-opacity="0" fill="#fff"/><use xlink:href="#l" transform="matrix(1,0,0,1,981.6217972850934,980) translate(0 16.216875)"/><use xlink:href="#m" transform="matrix(1,0,0,1,981.6217972850934,980) translate(53.21979492187501 16.216875)"/><use xlink:href="#r" transform="matrix(1,0,0,1,981.6217972850934,980) translate(112.03866210937501 16.216875)"/><path d="M1200 966a6 6 0 0 1 6-6h227.33a6 6 0 0 1 6 6v108a6 6 0 0 1-6 6H1206a6 6 0 0 1-6-6z" stroke="#00a4a6" stroke-width="3" fill="#fff" fill-opacity="0"/><path d="M1200 960h56v56h-56v-56z" stroke="#fff" stroke-opacity="0" fill="#00a4a6"/><path d="M1243.38 982.18c-.15-.17-.34-.25-.56-.25h-5.15v-5.58c-.03-2.54-.97-4.7-2.84-6.4-1.9-1.84-4.15-2.75-6.77-2.75-2.65 0-4.9.83-6.8 2.62-1.9 1.7-2.87 3.87-2.9 6.4v5.66h-5.15c-.24 0-.43.1-.58.25-.16.17-.22.34-.22.6V1008c0 .43.34.8.8.8h29.6c.46 0 .8-.37.8-.8v-25.28c0-.2-.06-.38-.22-.54zm-23.46-5.9c.03-2.13.8-3.88 2.37-5.3 1.6-1.5 3.52-2.2 5.73-2.2 2.22 0 4.12.75 5.7 2.25 1.54 1.4 2.32 3.2 2.32 5.32v5.58h-16.16zm22.1 30.94h-28.03v-23.7h28z" stroke="#fff" stroke-opacity="0" fill="#fff"/><path d="M1227.2 997.3v6.25h1.6v-6.23c2.13-.4 3.62-2.2 3.63-4.35 0-2.43-1.97-4.4-4.4-4.43-2.2-.03-4.07 1.5-4.44 3.68-.42 2.4 1.2 4.68 3.6 5.1zm.82-7.15c.78 0 1.44.27 2 .83.54.55.82 1.2.8 2 .03 1.54-1.2 2.8-2.74 2.8h-.06c-1.56.13-2.92-1.04-3.04-2.6-.12-1.56 1.05-2.93 2.6-3.03.16-.02.3-.02.44 0z" stroke="#fff" stroke-opacity="0" fill="#fff"/><g><use xlink:href="#o" transform="matrix(1,0,0,1,1271,980.0000000000001) translate(0 21.52777777777778)"/><use xlink:href="#s" transform="matrix(1,0,0,1,1271,980.0000000000001) translate(79.40538194444444 21.52777777777778)"/><use xlink:href="#t" transform="matrix(1,0,0,1,1271,980.0000000000001) translate(0 53.79340277777778)"/></g><path d="M892.5 768.5h-2.17v-25.74c0-.57-.4-1.08-.9-1.34l-.13-.06c-2.93-1.28-5.93-2.68-10.27-2.68-4.53 0-7.85 1.47-11.17 3.13-.5.26-.83.77-.83 1.28v25.4h-2.1v-27.44c3.57-2.87 8.67-4.53 14.1-4.53 5.1 0 9.96 1.48 13.47 4.03v27.96zm-13.47-34.86c-6.38 0-12.45 2.04-16.53 5.6-.32.33-.45.7-.45 1.1v29.55c0 .82.64 1.46 1.4 1.46h5.05c.83 0 1.46-.64 1.46-1.47v-25.92c2.8-1.35 5.5-2.37 9.07-2.37 3.38 0 5.87.97 8.36 2.12v26.17c0 .82.63 1.46 1.46 1.46h5.1c.77 0 1.4-.64 1.4-1.47v-30.14c0-.38-.18-.83-.5-1.08-4.02-3.26-9.83-5.04-15.83-5.04zm-.32 47.48c-16 0-28.97-12.95-28.97-28.98 0-16 12.96-28.97 28.98-28.97 16.03 0 29 12.96 29 28.98s-12.97 28.97-29 28.97zm0-60.9c-17.6 0-31.9 14.3-31.9 31.92s14.3 31.92 31.9 31.92c17.63 0 31.92-14.3 31.92-31.9 0-17.63-14.3-31.93-31.9-31.93z" stroke="#000" stroke-opacity="0" fill="#8c4fff"/><g><use xlink:href="#u" transform="matrix(1,0,0,1,816.7953712216245,793.0583857568894) translate(31.425795898437496 16.216875)"/><use xlink:href="#v" transform="matrix(1,0,0,1,816.7953712216245,793.0583857568894) translate(28.650781249999994 36.47162109375)"/></g><path d="M1531.68 630.87v-7.8l4.92 3.95-4.92 3.85zm-.96-15.6c-.84-.6-2.04-.73-2.88-.25-.96.37-1.56 1.33-1.56 2.4v19.1c0 1.07.6 2.02 1.56 2.5.36.13.72.25 1.08.25.72 0 1.32-.25 1.8-.6l11.88-9.6c.6-.5 1.08-1.2 1.08-2.05 0-.84-.48-1.67-1.08-2.15l-11.88-9.6zm65.4-9.25v-10.67l5.4 5.4-5.4 5.27zm11.16-7.2l-12-12c-.72-.72-1.92-.96-2.88-.6-1.08.5-1.68 1.44-1.68 2.52V598h-20.88v-25.93c0-1.45-1.2-2.65-2.64-2.65h-21v5.4h18.24V598h-18.72v5.52h18.72v23.16h-18.24v5.4h21c1.44 0 2.64-1.2 2.64-2.63V603.5h20.88v9.13c0 1.2.6 2.15 1.68 2.5.36.25.6.25.96.25.72 0 1.44-.24 1.92-.84l12-11.88c1.08-1.07 1.08-2.75 0-3.83zm-75.6 5.76v-7.68l4.92 3.85-4.92 3.84zm-.96-15.48c-.84-.72-2.04-.84-2.88-.36-.96.5-1.56 1.44-1.56 2.4v19.1c0 1.06.6 2.02 1.56 2.5.36.13.72.25 1.08.25.72 0 1.32-.25 1.8-.62l11.88-9.48c.6-.6 1.08-1.3 1.08-2.15 0-.85-.48-1.68-1.08-2.16l-11.88-9.5zm.96-13.08v-7.8l4.92 3.85-4.92 3.95zm-.96-15.6c-.84-.7-2.04-.83-2.88-.35-.96.47-1.56 1.43-1.56 2.5v19.1c0 1.08.6 1.92 1.56 2.4.36.23.72.35 1.08.35.72 0 1.32-.24 1.8-.6l11.88-9.6c.6-.48 1.08-1.32 1.08-2.15 0-.85-.48-1.57-1.08-2.05l-11.88-9.6zm29.28 92.53c-30.12 0-54.6-24.5-54.6-54.6 0-30.13 24.48-54.6 54.6-54.6s54.6 24.48 54.6 54.6-24.48 54.6-54.6 54.6zm0-114.6c-33.12 0-60 26.88-60 60 0 33.12 26.88 60 60 60 33.12 0 60-26.88 60-60 0-33.13-26.88-60-60-60z" stroke="#000" stroke-opacity="0" fill="#8c4fff"/><g><use xlink:href="#w" transform="matrix(1,0,0,1,1470,667.3447566516411) translate(20.33854166666667 21.52777777777778)"/><use xlink:href="#x" transform="matrix(1,0,0,1,1470,667.3447566516411) translate(71.11979166666667 21.52777777777778)"/></g><path d="M1551.68 1052.52v-7.8l4.92 3.96-4.92 3.84zm-.96-15.6c-.84-.6-2.04-.72-2.88-.24-.96.36-1.56 1.32-1.56 2.4v19.08c0 1.08.6 2.04 1.56 2.52.36.12.72.24 1.08.24.72 0 1.32-.24 1.8-.6l11.88-9.6c.6-.48 1.08-1.2 1.08-2.04 0-.84-.48-1.68-1.08-2.16l-11.88-9.6zm65.4-9.24V1017l5.4 5.4-5.4 5.28zm11.16-7.2l-12-12c-.72-.72-1.92-.96-2.88-.6-1.08.48-1.68 1.44-1.68 2.52v9.24h-20.88v-25.92c0-1.44-1.2-2.64-2.64-2.64h-21v5.4h18.24v23.16h-18.72v5.52h18.72v23.16h-18.24v5.4h21c1.44 0 2.64-1.2 2.64-2.64v-25.92h20.88v9.12c0 1.2.6 2.16 1.68 2.52.36.24.6.24.96.24.72 0 1.44-.24 1.92-.84l12-11.88c1.08-1.08 1.08-2.76 0-3.84zm-75.6 5.76v-7.68l4.92 3.84-4.92 3.84zm-.96-15.48c-.84-.72-2.04-.84-2.88-.36-.96.48-1.56 1.44-1.56 2.4v19.08c0 1.08.6 2.04 1.56 2.52.36.12.72.24 1.08.24.72 0 1.32-.24 1.8-.6l11.88-9.48c.6-.6 1.08-1.32 1.08-2.16 0-.84-.48-1.68-1.08-2.16l-11.88-9.48zm.96-13.08v-7.8l4.92 3.84-4.92 3.96zm-.96-15.6c-.84-.72-2.04-.84-2.88-.36-.96.48-1.56 1.44-1.56 2.52v19.08c0 1.08.6 1.92 1.56 2.4.36.24.72.36 1.08.36.72 0 1.32-.24 1.8-.6l11.88-9.6c.6-.48 1.08-1.32 1.08-2.16 0-.84-.48-1.56-1.08-2.04l-11.88-9.6zm29.28 92.52c-30.12 0-54.6-24.48-54.6-54.6s24.48-54.6 54.6-54.6 54.6 24.48 54.6 54.6-24.48 54.6-54.6 54.6zm0-114.6c-33.12 0-60 26.88-60 60 0 33.12 26.88 60 60 60 33.12 0 60-26.88 60-60 0-33.12-26.88-60-60-60z" stroke="#000" stroke-opacity="0" fill="#8c4fff"/><g><use xlink:href="#w" transform="matrix(1,0,0,1,1490,1089) translate(20.33854166666667 21.52777777777778)"/><use xlink:href="#x" transform="matrix(1,0,0,1,1490,1089) translate(71.11979166666667 21.52777777777778)"/></g><path d="M1441.33 598.35h42.3" stroke="#3a414a" fill="none"/><path d="M1441.35 598.82h-.52v-.95h.52z" stroke="#3a414a" stroke-width=".05" fill="#3a414a"/><path d="M1498.38 598.35l-14.26 4.63v-9.27z" stroke="#3a414a" fill="#3a414a"/><path d="M1441.33 1020h62.3" stroke="#3a414a" fill="none"/><path d="M1441.35 1020.48h-.52v-.96h.52z" stroke="#3a414a" stroke-width=".05" fill="#3a414a"/><path d="M1518.38 1020l-14.26 4.63v-9.27z" stroke="#3a414a" fill="#3a414a"/><defs><path d="M52 0l541-1490h220L1361 0h-200l-149-416H398L254 0H52zm404-582h497c-103-290-145-390-251-756-108 377-145 460-246 756" id="y"/><path d="M481 0L54-1118h197c107 314 236 620 325 951 87-331 217-637 324-951h197L670 0H481" id="z"/><path d="M471 26C259 26 90-98 90-318c0-256 228-303 435-329 202-27 287-16 287-108 0-139-79-219-234-219-161 0-248 86-283 164l-173-57c86-203 278-265 451-265 150 0 419 46 419 395V0H815v-152h-12C765-73 660 26 471 26zm31-159c199 0 310-134 310-271v-155c-30 35-226 55-295 64-131 17-246 59-246 186 0 116 97 176 231 176" id="A"/><path d="M158 0v-1118h180V0H158zm91-1301c-68 0-125-53-125-119s57-119 125-119c69 0 126 53 126 119s-57 119-126 119" id="B"/><path d="M338-1490V0H158v-1490h180" id="C"/><path d="M677 24c-213 0-288-135-325-197h-20V0H158v-1490h180v551h14c37-59 106-193 324-193 279 0 474 222 474 576 0 356-194 580-473 580zm-27-161c209 0 317-186 317-421 0-232-105-413-317-413-206 0-314 166-314 413 0 249 111 421 314 421" id="D"/><path d="M598-1118v154H368v674c0 100 37 144 132 144 23 0 62-6 92-12L629-6c-37 13-88 20-134 20-193 0-307-107-307-290v-688H20v-154h168v-266h180v266h230" id="E"/><path d="M140 405l46-156c120 36 205 19 263-150l32-93L54-1118h197c107 313 237 620 324 950 87-331 219-637 326-950h196L606 167c-68 178-176 259-334 259-64 0-113-12-132-21" id="F"/><g id="a"><use transform="matrix(0.0087890625,0,0,0.0087890625,0,0)" xlink:href="#y"/><use transform="matrix(0.0087890625,0,0,0.0087890625,11.197265625,0)" xlink:href="#z"/><use transform="matrix(0.0087890625,0,0,0.0087890625,21.2255859375,0)" xlink:href="#A"/><use transform="matrix(0.0087890625,0,0,0.0087890625,31.3330078125,0)" xlink:href="#B"/><use transform="matrix(0.0087890625,0,0,0.0087890625,35.6923828125,0)" xlink:href="#C"/><use transform="matrix(0.0087890625,0,0,0.0087890625,40.0517578125,0)" xlink:href="#A"/><use transform="matrix(0.0087890625,0,0,0.0087890625,50.1591796875,0)" xlink:href="#D"/><use transform="matrix(0.0087890625,0,0,0.0087890625,61.1806640625,0)" xlink:href="#B"/><use transform="matrix(0.0087890625,0,0,0.0087890625,65.5400390625,0)" xlink:href="#C"/><use transform="matrix(0.0087890625,0,0,0.0087890625,69.8994140625,0)" xlink:href="#B"/><use transform="matrix(0.0087890625,0,0,0.0087890625,74.2587890625,0)" xlink:href="#E"/><use transform="matrix(0.0087890625,0,0,0.0087890625,80.4990234375,0)" xlink:href="#F"/></g><path d="M130 0v-134l666-991c45-67 96-135 147-202-269 9-546 3-821 5v-168h1036v136L502-379c-49 72-103 145-157 216 268-9 546-3 821-5V0H130" id="G"/><path d="M613 24c-304 0-509-231-509-576 0-350 205-580 509-580 305 0 511 230 511 580 0 345-206 576-511 576zm0-161c226 0 329-195 329-415 0-222-103-419-329-419-223 0-326 196-326 419 0 220 103 415 326 415" id="H"/><path d="M338-670V0H158v-1118h173l1 207c72-158 192-221 342-221 226 0 378 139 378 422V0H872v-695c0-172-96-275-252-275-161 0-282 109-282 300" id="I"/><path d="M628 24c-324 0-524-230-524-574 0-343 198-582 503-582 237 0 487 146 487 559v75H286c9 234 145 362 343 362 132 0 231-58 273-172l174 48C1024-91 857 24 628 24zM287-650h624c-17-190-120-322-304-322-192 0-309 151-320 322" id="J"/><g id="b"><use transform="matrix(0.0087890625,0,0,0.0087890625,0,0)" xlink:href="#G"/><use transform="matrix(0.0087890625,0,0,0.0087890625,11.3203125,0)" xlink:href="#H"/><use transform="matrix(0.0087890625,0,0,0.0087890625,22.11328125,0)" xlink:href="#I"/><use transform="matrix(0.0087890625,0,0,0.0087890625,32.748046875,0)" xlink:href="#J"/></g><path d="M180 0v-1490h528c311 0 458 177 458 395 0 191-114 278-244 313v14c139 9 302 137 302 371 0 225-148 397-499 397H180zm190-168h350c232 0 321-102 321-231 0-149-120-277-311-277H370v508zm0-668h328c160 0 286-101 286-255 0-129-87-231-280-231H370v486" id="K"/><use transform="matrix(0.0087890625,0,0,0.0087890625,0,0)" xlink:href="#K" id="c"/><use transform="matrix(0.0087890625,0,0,0.0087890625,0,0)" xlink:href="#y" id="d"/><path d="M458 0L52-1490h194c108 439 233 855 324 1313 92-459 221-873 331-1313h216c110 438 234 854 330 1307 92-455 216-869 323-1307h196L1558 0h-221l-256-944c-26-95-50-200-73-331-22 122-44 223-73 331L680 0H458" id="L"/><path d="M657 26c-323 0-524-166-541-416h195c15 169 171 246 346 246 202 0 356-106 356-265 5-203-294-238-475-293-239-73-380-191-380-389 0-252 224-419 512-419 294 0 499 171 508 396H992c-17-145-151-228-328-228-193 0-321 102-321 242 0 156 175 211 284 241l149 41c160 44 422 134 422 412 0 244-197 432-541 432" id="M"/><g id="e"><use transform="matrix(0.008173828125000001,0,0,0.008173828125000001,0,0)" xlink:href="#y"/><use transform="matrix(0.008173828125000001,0,0,0.008173828125000001,10.601455078125001,0)" xlink:href="#L"/><use transform="matrix(0.008173828125000001,0,0,0.008173828125000001,27.096240234375003,0)" xlink:href="#M"/></g><path d="M783 20c-382 0-661-292-661-764 0-473 279-766 661-766 302 0 548 182 601 489h-190c-42-204-217-313-411-313-268 0-476 208-476 590 0 381 209 588 476 588 195 0 369-110 411-313h190c-52 303-296 489-601 489" id="N"/><path d="M537 14c-226 0-379-139-379-422v-710h180v695c0 172 97 275 253 275 160 0 281-109 281-300v-670h181V0H879v-209C806-46 684 14 537 14" id="O"/><path d="M577 24c-279 0-473-224-473-580 0-354 195-576 474-576 218 0 287 134 324 193h14v-551h180V0H922v-173h-20C865-111 790 24 577 24zm27-161c203 0 314-172 314-421 0-247-108-413-314-413-212 0-317 181-317 413 0 235 108 421 317 421" id="P"/><g id="f"><use transform="matrix(0.008173828125000001,0,0,0.008173828125000001,0,0)" xlink:href="#N"/><use transform="matrix(0.008173828125000001,0,0,0.008173828125000001,12.228046875000002,0)" xlink:href="#C"/><use transform="matrix(0.008173828125000001,0,0,0.008173828125000001,16.282265625,0)" xlink:href="#H"/><use transform="matrix(0.008173828125000001,0,0,0.008173828125000001,26.3197265625,0)" xlink:href="#O"/><use transform="matrix(0.008173828125000001,0,0,0.008173828125000001,36.218232421875,0)" xlink:href="#P"/></g><path d="M600 0L52-1490h200c166 485 304 806 458 1336 156-533 285-846 449-1336h202L819 0H600" id="Q"/><path d="M158 0v-1118h174v172h12c41-113 157-188 290-188 26 0 70 2 91 3v181c-11-2-60-10-108-10-161 0-279 109-279 260V0H158" id="R"/><g id="g"><use transform="matrix(0.008173828125000001,0,0,0.008173828125000001,0,0)" xlink:href="#Q"/><use transform="matrix(0.008173828125000001,0,0,0.008173828125000001,11.549619140625001,0)" xlink:href="#B"/><use transform="matrix(0.008173828125000001,0,0,0.008173828125000001,15.603837890625002,0)" xlink:href="#R"/><use transform="matrix(0.008173828125000001,0,0,0.008173828125000001,22.167421875000002,0)" xlink:href="#E"/><use transform="matrix(0.008173828125000001,0,0,0.008173828125000001,27.643886718750004,0)" xlink:href="#O"/><use transform="matrix(0.008173828125000001,0,0,0.008173828125000001,37.542392578125,0)" xlink:href="#A"/><use transform="matrix(0.008173828125000001,0,0,0.008173828125000001,46.942294921875,0)" xlink:href="#C"/></g><path d="M158 418v-1536h174v179h20c37-59 106-193 324-193 279 0 474 222 474 576 0 356-194 580-473 580-213 0-288-135-325-197h-14v591H158zm492-555c209 0 317-186 317-421 0-232-105-413-317-413-206 0-314 166-314 413 0 249 111 421 314 421" id="S"/><g id="h"><use transform="matrix(0.008173828125000001,0,0,0.008173828125000001,0,0)" xlink:href="#S"/><use transform="matrix(0.008173828125000001,0,0,0.008173828125000001,10.249980468750001,0)" xlink:href="#R"/><use transform="matrix(0.008173828125000001,0,0,0.008173828125000001,16.813564453125004,0)" xlink:href="#B"/><use transform="matrix(0.008173828125000001,0,0,0.008173828125000001,20.867783203125004,0)" xlink:href="#z"/><use transform="matrix(0.008173828125000001,0,0,0.008173828125000001,30.194121093750006,0)" xlink:href="#A"/><use transform="matrix(0.008173828125000001,0,0,0.008173828125000001,39.594023437500006,0)" xlink:href="#E"/><use transform="matrix(0.008173828125000001,0,0,0.008173828125000001,44.907011718750006,0)" xlink:href="#J"/></g><path d="M613 24c-304 0-509-231-509-576 0-350 205-580 509-580 216 0 392 114 453 309l-173 49c-33-115-133-197-280-197-223 0-326 196-326 419 0 220 103 415 326 415 150 0 252-85 285-206l172 49C1010-95 832 24 613 24" id="T"/><g id="i"><use transform="matrix(0.008173828125000001,0,0,0.008173828125000001,0,0)" xlink:href="#T"/><use transform="matrix(0.008173828125000001,0,0,0.008173828125000001,9.563378906250001,0)" xlink:href="#C"/><use transform="matrix(0.008173828125000001,0,0,0.008173828125000001,13.617597656250002,0)" xlink:href="#H"/><use transform="matrix(0.008173828125000001,0,0,0.008173828125000001,23.655058593750002,0)" xlink:href="#O"/><use transform="matrix(0.008173828125000001,0,0,0.008173828125000001,33.553564453125006,0)" xlink:href="#P"/></g><path d="M218-607c0-325 108-727 258-974h175c-155 315-250 682-250 974 0 265 78 531 250 886H476C306-10 218-315 218-607" id="U"/><path d="M180 0v-1490h510c348 0 508 209 508 474 0 266-160 477-507 477H370V0H180zm190-706h312c236 0 327-133 327-310 0-176-91-307-329-307H370v617" id="V"/><path d="M96 279C273-86 346-350 346-607c0-292-95-659-250-974h175c150 246 258 650 258 974 0 297-91 602-258 886H96" id="W"/><g id="j"><use transform="matrix(0.008173828125000001,0,0,0.008173828125000001,0,0)" xlink:href="#U"/><use transform="matrix(0.008173828125000001,0,0,0.008173828125000001,6.105849609375,0)" xlink:href="#Q"/><use transform="matrix(0.008173828125000001,0,0,0.008173828125000001,17.65546875,0)" xlink:href="#V"/><use transform="matrix(0.008173828125000001,0,0,0.008173828125000001,28.346835937500003,0)" xlink:href="#N"/><use transform="matrix(0.008173828125000001,0,0,0.008173828125000001,40.57488281250001,0)" xlink:href="#W"/></g><path d="M180 0v-1490h510c348 0 508 194 508 460 0 198-88 351-276 417L1256 0h-220L726-579c-117 2-238 0-356 1V0H180zm190-747h312c235 0 327-108 327-283 0-177-92-293-329-293H370v576" id="X"/><path d="M611 442c-248 0-391-105-460-228l146-94c47 65 117 165 314 165 178 0 307-82 307-266v-224h-17C863-141 792-18 576-18c-268 0-472-195-472-546 0-346 197-568 476-568 216 0 288 133 326 193h17v-179h175V29c0 289-215 413-487 413zm-5-620c203 0 314-146 314-390 0-237-108-403-314-403-213 0-319 180-319 403 0 230 109 390 319 390" id="Y"/><g id="k"><use transform="matrix(0.010850694444444444,0,0,0.010850694444444444,0,0)" xlink:href="#X"/><use transform="matrix(0.010850694444444444,0,0,0.010850694444444444,13.975694444444445,0)" xlink:href="#J"/><use transform="matrix(0.010850694444444444,0,0,0.010850694444444444,26.931423611111104,0)" xlink:href="#Y"/><use transform="matrix(0.010850694444444444,0,0,0.010850694444444444,40.55989583333333,0)" xlink:href="#B"/><use transform="matrix(0.010850694444444444,0,0,0.010850694444444444,45.94184027777778,0)" xlink:href="#H"/><use transform="matrix(0.010850694444444444,0,0,0.010850694444444444,59.26649305555555,0)" xlink:href="#I"/></g><g id="l"><use transform="matrix(0.008173828125000001,0,0,0.008173828125000001,0,0)" xlink:href="#V"/><use transform="matrix(0.008173828125000001,0,0,0.008173828125000001,10.691367187500001,0)" xlink:href="#O"/><use transform="matrix(0.008173828125000001,0,0,0.008173828125000001,20.589873046875002,0)" xlink:href="#D"/><use transform="matrix(0.008173828125000001,0,0,0.008173828125000001,30.839853515625002,0)" xlink:href="#C"/><use transform="matrix(0.008173828125000001,0,0,0.008173828125000001,34.894072265625,0)" xlink:href="#B"/><use transform="matrix(0.008173828125000001,0,0,0.008173828125000001,38.948291015625,0)" xlink:href="#T"/></g><path d="M538 24C308 24 148-78 108-271l171-41c32 123 123 178 257 178 156 0 256-77 256-169 0-77-54-128-164-154l-186-44c-203-48-300-148-300-305 0-192 176-326 414-326 230 0 351 112 402 269l-163 42c-31-80-94-158-238-158-133 0-233 69-233 162 0 83 57 129 188 160l169 40c203 48 298 149 298 302 0 196-179 339-441 339" id="Z"/><g id="m"><use transform="matrix(0.008173828125000001,0,0,0.008173828125000001,0,0)" xlink:href="#Z"/><use transform="matrix(0.008173828125000001,0,0,0.008173828125000001,8.835908203125001,0)" xlink:href="#O"/><use transform="matrix(0.008173828125000001,0,0,0.008173828125000001,18.7344140625,0)" xlink:href="#D"/><use transform="matrix(0.008173828125000001,0,0,0.008173828125000001,28.984394531250004,0)" xlink:href="#I"/><use transform="matrix(0.008173828125000001,0,0,0.008173828125000001,38.8747265625,0)" xlink:href="#J"/><use transform="matrix(0.008173828125000001,0,0,0.008173828125000001,48.63427734375,0)" xlink:href="#E"/></g><path d="M653-1490V0H466v-1314h-10L96-1047v-204l324-239h233" id="aa"/><use transform="matrix(0.008173828125000001,0,0,0.008173828125000001,0,0)" xlink:href="#aa" id="n"/><g id="o"><use transform="matrix(0.010850694444444444,0,0,0.010850694444444444,0,0)" xlink:href="#V"/><use transform="matrix(0.010850694444444444,0,0,0.010850694444444444,14.192708333333332,0)" xlink:href="#R"/><use transform="matrix(0.010850694444444444,0,0,0.010850694444444444,22.90581597222222,0)" xlink:href="#B"/><use transform="matrix(0.010850694444444444,0,0,0.010850694444444444,28.287760416666664,0)" xlink:href="#z"/><use transform="matrix(0.010850694444444444,0,0,0.010850694444444444,40.66840277777778,0)" xlink:href="#A"/><use transform="matrix(0.010850694444444444,0,0,0.010850694444444444,53.146701388888886,0)" xlink:href="#E"/><use transform="matrix(0.010850694444444444,0,0,0.010850694444444444,60.19965277777778,0)" xlink:href="#J"/></g><g id="p"><use transform="matrix(0.010850694444444444,0,0,0.010850694444444444,0,0)" xlink:href="#Z"/><use transform="matrix(0.010850694444444444,0,0,0.010850694444444444,11.729600694444445,0)" xlink:href="#O"/><use transform="matrix(0.010850694444444444,0,0,0.010850694444444444,24.869791666666664,0)" xlink:href="#D"/><use transform="matrix(0.010850694444444444,0,0,0.010850694444444444,38.4765625,0)" xlink:href="#I"/><use transform="matrix(0.010850694444444444,0,0,0.010850694444444444,51.60590277777778,0)" xlink:href="#J"/><use transform="matrix(0.010850694444444444,0,0,0.010850694444444444,64.56163194444444,0)" xlink:href="#E"/></g><use transform="matrix(0.010850694444444444,0,0,0.010850694444444444,0,0)" xlink:href="#aa" id="q"/><path d="M154 0v-137l495-537c165-179 249-281 249-418 0-156-121-253-280-253-170 0-278 110-278 278H158c0-264 200-443 465-443 266 0 455 183 455 416 0 161-73 288-336 568L416-179v12h687V0H154" id="ab"/><use transform="matrix(0.008173828125000001,0,0,0.008173828125000001,0,0)" xlink:href="#ab" id="r"/><g id="s"><use transform="matrix(0.010850694444444444,0,0,0.010850694444444444,0,0)" xlink:href="#Z"/><use transform="matrix(0.010850694444444444,0,0,0.010850694444444444,11.729600694444445,0)" xlink:href="#O"/><use transform="matrix(0.010850694444444444,0,0,0.010850694444444444,24.869791666666664,0)" xlink:href="#D"/><use transform="matrix(0.010850694444444444,0,0,0.010850694444444444,38.4765625,0)" xlink:href="#I"/><use transform="matrix(0.010850694444444444,0,0,0.010850694444444444,51.60590277777778,0)" xlink:href="#J"/><use transform="matrix(0.010850694444444444,0,0,0.010850694444444444,64.56163194444444,0)" xlink:href="#E"/></g><use transform="matrix(0.010850694444444444,0,0,0.010850694444444444,0,0)" xlink:href="#ab" id="t"/><path d="M370-1490V0H180v-1490h190" id="ac"/><g id="u"><use transform="matrix(0.008173828125000001,0,0,0.008173828125000001,0,0)" xlink:href="#ac"/><use transform="matrix(0.008173828125000001,0,0,0.008173828125000001,4.495605468750001,0)" xlink:href="#I"/><use transform="matrix(0.008173828125000001,0,0,0.008173828125000001,14.3859375,0)" xlink:href="#E"/><use transform="matrix(0.008173828125000001,0,0,0.008173828125000001,19.69892578125,0)" xlink:href="#J"/><use transform="matrix(0.008173828125000001,0,0,0.008173828125000001,29.458476562500003,0)" xlink:href="#R"/><use transform="matrix(0.008173828125000001,0,0,0.008173828125000001,36.022060546875004,0)" xlink:href="#I"/><use transform="matrix(0.008173828125000001,0,0,0.008173828125000001,45.91239257812501,0)" xlink:href="#J"/><use transform="matrix(0.008173828125000001,0,0,0.008173828125000001,55.67194335937501,0)" xlink:href="#E"/></g><path d="M409 0L70-1118h191c89 329 165 560 243 925 75-353 154-601 240-925h192c85 325 161 564 235 922 77-354 157-598 244-922h191L1267 0h-179c-86-307-176-590-250-913C763-588 675-308 588 0H409" id="ad"/><g id="v"><use transform="matrix(0.008173828125000001,0,0,0.008173828125000001,0,0)" xlink:href="#Y"/><use transform="matrix(0.008173828125000001,0,0,0.008173828125000001,10.266328125000001,0)" xlink:href="#A"/><use transform="matrix(0.008173828125000001,0,0,0.008173828125000001,19.66623046875,0)" xlink:href="#E"/><use transform="matrix(0.008173828125000001,0,0,0.008173828125000001,24.979218750000005,0)" xlink:href="#J"/><use transform="matrix(0.008173828125000001,0,0,0.008173828125000001,34.436337890625005,0)" xlink:href="#ad"/><use transform="matrix(0.008173828125000001,0,0,0.008173828125000001,48.13567382812501,0)" xlink:href="#A"/><use transform="matrix(0.008173828125000001,0,0,0.008173828125000001,57.29036132812501,0)" xlink:href="#F"/></g><path d="M180 0v-1490h224l606 953c40 63 108 177 176 312-27-437-7-821-13-1265h190V0h-226C860-448 622-778 356-1262c27 476 11 792 15 1262H180" id="ae"/><path d="M98-1322v-168h1126v168H757V0H567v-1322H98" id="af"/><g id="w"><use transform="matrix(0.010850694444444444,0,0,0.010850694444444444,0,0)" xlink:href="#ae"/><use transform="matrix(0.010850694444444444,0,0,0.010850694444444444,16.74262152777778,0)" xlink:href="#y"/><use transform="matrix(0.010850694444444444,0,0,0.010850694444444444,30.186631944444443,0)" xlink:href="#af"/></g><g id="x"><use transform="matrix(0.010850694444444444,0,0,0.010850694444444444,0,0)" xlink:href="#Y"/><use transform="matrix(0.010850694444444444,0,0,0.010850694444444444,13.628472222222221,0)" xlink:href="#A"/><use transform="matrix(0.010850694444444444,0,0,0.010850694444444444,26.106770833333332,0)" xlink:href="#E"/><use transform="matrix(0.010850694444444444,0,0,0.010850694444444444,33.15972222222222,0)" xlink:href="#J"/><use transform="matrix(0.010850694444444444,0,0,0.010850694444444444,45.71397569444444,0)" xlink:href="#ad"/><use transform="matrix(0.010850694444444444,0,0,0.010850694444444444,63.89973958333333,0)" xlink:href="#A"/><use transform="matrix(0.010850694444444444,0,0,0.010850694444444444,76.0525173611111,0)" xlink:href="#F"/></g></defs></g></svg>